solid stl_item0
  facet normal 1 0 0
    outer loop
      vertex 39 -88 10
      vertex 39 -88 0
      vertex 39 -68 0
    endloop
  endfacet
  facet normal 1 0 0
    outer loop
      vertex 39 -88 10
      vertex 39 -68 0
      vertex 39 -68 10
    endloop
  endfacet
  facet normal 0 0 1
    outer loop
      vertex 39 -68 10
      vertex 4 -68 10
      vertex 4 -88 10
    endloop
  endfacet
  facet normal 0 0 1
    outer loop
      vertex 39 -68 10
      vertex 4 -88 10
      vertex 39 -88 10
    endloop
  endfacet
  facet normal 0 0 -1
    outer loop
      vertex 39 -88 0
      vertex 4 -88 0
      vertex 4 -68 0
    endloop
  endfacet
  facet normal 0 0 -1
    outer loop
      vertex 39 -88 0
      vertex 4 -68 0
      vertex 39 -68 0
    endloop
  endfacet
  facet normal 0 -1 0
    outer loop
      vertex 4 -88 10
      vertex 4 -88 0
      vertex 39 -88 0
    endloop
  endfacet
  facet normal 0 -1 0
    outer loop
      vertex 4 -88 10
      vertex 39 -88 0
      vertex 39 -88 10
    endloop
  endfacet
  facet normal 0 1 0
    outer loop
      vertex 39 -68 10
      vertex 39 -68 0
      vertex 4 -68 0
    endloop
  endfacet
  facet normal 0 1 0
    outer loop
      vertex 39 -68 10
      vertex 4 -68 0
      vertex 4 -68 10
    endloop
  endfacet
  facet normal 0 0 1
    outer loop
      vertex 69.528 23.567 63
      vertex 76.789 30.487 63
      vertex 68.739 28.886 63
    endloop
  endfacet
  facet normal 0 0 1
    outer loop
      vertex 76.789 30.487 63
      vertex 69.528 23.567 63
      vertex 77.697 24.371 63
    endloop
  endfacet
  facet normal 0 0 1
    outer loop
      vertex 69.528 23.567 63
      vertex 69.792 18.196 63
      vertex 77.697 24.371 63
    endloop
  endfacet
  facet normal 0 0 1
    outer loop
      vertex 78 18.196 63
      vertex 77.697 24.371 63
      vertex 69.792 18.196 63
    endloop
  endfacet
  facet normal 0 0 1
    outer loop
      vertex 77.697 12.021 63
      vertex 78 18.196 63
      vertex 69.792 18.196 63
    endloop
  endfacet
  facet normal 0 0 1
    outer loop
      vertex 77.697 12.021 63
      vertex 69.792 18.196 63
      vertex 69.528 12.826 63
    endloop
  endfacet
  facet normal 0 0 1
    outer loop
      vertex 69.528 12.826 63
      vertex 68.739 7.507 63
      vertex 77.697 12.021 63
    endloop
  endfacet
  facet normal 0 0 1
    outer loop
      vertex 77.697 12.021 63
      vertex 68.739 7.507 63
      vertex 76.789 5.906 63
    endloop
  endfacet
  facet normal 0 0 1
    outer loop
      vertex 39 62 10
      vertex 4 62 10
      vertex 4 42 10
    endloop
  endfacet
  facet normal 0 0 1
    outer loop
      vertex 39 62 10
      vertex 4 42 10
      vertex 39 42 10
    endloop
  endfacet
  facet normal 0 0 -1
    outer loop
      vertex 19.002 80.99963 0
      vertex 21.175 80.893 0
      vertex 19.002 72.79129 0
    endloop
  endfacet
  facet normal 0 -1 0
    outer loop
      vertex 4 42 10
      vertex 4 42 0
      vertex 39 42 0
    endloop
  endfacet
  facet normal 0 -1 0
    outer loop
      vertex 4 42 10
      vertex 39 42 0
      vertex 39 42 10
    endloop
  endfacet
  facet normal 0 0 1
    outer loop
      vertex 53.744 56.94 63
      vertex 59.548 62.744 63
      vertex 49.76 60.551 63
    endloop
  endfacet
  facet normal 0 0 1
    outer loop
      vertex 57.355 52.956 63
      vertex 59.548 62.744 63
      vertex 53.744 56.94 63
    endloop
  endfacet
  facet normal 0 0 1
    outer loop
      vertex 63.322 44.025 63
      vertex 70.561 47.894 63
      vertex 60.558 48.637 63
    endloop
  endfacet
  facet normal 1 0 0
    outer loop
      vertex 4 -68 10
      vertex 4 -57 20
      vertex 4 -88 20
    endloop
  endfacet
  facet normal 1 0 0
    outer loop
      vertex 4 -57 44.07899
      vertex 4 -88 44.07899
      vertex 4 -57 20
    endloop
  endfacet
  facet normal 0 0 -1
    outer loop
      vertex 21.175 80.893 0
      vertex 27.291 79.986 0
      vertex 20.371 72.724 0
    endloop
  endfacet
  facet normal 0 0 -1
    outer loop
      vertex 20.371 72.724 0
      vertex 19.002 72.79129 0
      vertex 21.175 80.893 0
    endloop
  endfacet
  facet normal 1 0 0
    outer loop
      vertex 4 -88 44.07899
      vertex 4 -88 20
      vertex 4 -57 20
    endloop
  endfacet
  facet normal 0 0 1
    outer loop
      vertex 59.548 62.744 63
      vertex 57.355 52.956 63
      vertex 63.7 58.163 63
    endloop
  endfacet
  facet normal 0 0 1
    outer loop
      vertex 54.967 66.896 63
      vertex 49.76 60.551 63
      vertex 59.548 62.744 63
    endloop
  endfacet
  facet normal 1 0 0
    outer loop
      vertex 4 -68 10
      vertex 4 -88 20
      vertex 4 -88 10
    endloop
  endfacet
  facet normal 1 0 0
    outer loop
      vertex 4 -98 20
      vertex 4 -88 10
      vertex 4 -88 20
    endloop
  endfacet
  facet normal 1 0 0
    outer loop
      vertex 4 -88 0
      vertex 4 -88 10
      vertex 4 -98 0
    endloop
  endfacet
  facet normal 1 0 0
    outer loop
      vertex 4 -98 20
      vertex 4 -98 0
      vertex 4 -88 10
    endloop
  endfacet
  facet normal -1 0 0
    outer loop
      vertex -51 -68 10
      vertex -51 -68 0
      vertex -51 -88 0
    endloop
  endfacet
  facet normal -1 0 0
    outer loop
      vertex -51 -68 10
      vertex -51 -88 0
      vertex -51 -88 10
    endloop
  endfacet
  facet normal 0 0 1
    outer loop
      vertex -16 -68 10
      vertex -51 -68 10
      vertex -51 -88 10
    endloop
  endfacet
  facet normal 0 0 1
    outer loop
      vertex -16 -68 10
      vertex -51 -88 10
      vertex -16 -88 10
    endloop
  endfacet
  facet normal 0 0 -1
    outer loop
      vertex -16 -88 0
      vertex -51 -88 0
      vertex -51 -68 0
    endloop
  endfacet
  facet normal 0 0 -1
    outer loop
      vertex -16 -88 0
      vertex -51 -68 0
      vertex -16 -68 0
    endloop
  endfacet
  facet normal 0 -1 0
    outer loop
      vertex -51 -88 10
      vertex -51 -88 0
      vertex -16 -88 0
    endloop
  endfacet
  facet normal 0 -1 0
    outer loop
      vertex -51 -88 10
      vertex -16 -88 0
      vertex -16 -88 10
    endloop
  endfacet
  facet normal 0 0 1
    outer loop
      vertex 67.433 2.291 63
      vertex 65.621 -2.772 63
      vertex 73.204 -5.913 63
    endloop
  endfacet
  facet normal 0 0 1
    outer loop
      vertex 75.287 -0.092 63
      vertex 67.433 2.291 63
      vertex 73.204 -5.913 63
    endloop
  endfacet
  facet normal 0 0 1
    outer loop
      vertex 76.789 5.906 63
      vertex 67.433 2.291 63
      vertex 75.287 -0.092 63
    endloop
  endfacet
  facet normal 0 0 1
    outer loop
      vertex 63.322 -7.632 63
      vertex 70.561 -11.502 63
      vertex 65.621 -2.772 63
    endloop
  endfacet
  facet normal 0 0 1
    outer loop
      vertex 70.561 -11.502 63
      vertex 73.204 -5.913 63
      vertex 65.621 -2.772 63
    endloop
  endfacet
  facet normal 0 0 1
    outer loop
      vertex 49.76 -24.158 63
      vertex 59.548 -26.351 63
      vertex 53.744 -20.547 63
    endloop
  endfacet
  facet normal 0 0 1
    outer loop
      vertex 67.383 -16.805 63
      vertex 57.355 -16.563 63
      vertex 63.7 -21.77 63
    endloop
  endfacet
  facet normal 0.80318 -0.59574 0
    outer loop
      vertex -41.27 12.437 48
      vertex -43.711 9.146 48
      vertex -43.711 9.146 0
    endloop
  endfacet
  facet normal 0.80318 -0.59574 0
    outer loop
      vertex -41.27 12.437 48
      vertex -43.711 9.146 0
      vertex -41.27 12.437 0
    endloop
  endfacet
  facet normal 0 0 1
    outer loop
      vertex 67.383 -16.805 63
      vertex 70.561 -11.502 63
      vertex 60.558 -12.244 63
    endloop
  endfacet
  facet normal 0 0 1
    outer loop
      vertex -38.519 -43.566 48
      vertex -42.941 -47.988 48
      vertex -35.484 -46.317 48
    endloop
  endfacet
  facet normal 0.74092 -0.67159 0
    outer loop
      vertex -38.519 15.472 48
      vertex -41.27 12.437 48
      vertex -41.27 12.437 0
    endloop
  endfacet
  facet normal 0.74092 -0.67159 0
    outer loop
      vertex -38.519 15.472 48
      vertex -41.27 12.437 0
      vertex -38.519 15.472 0
    endloop
  endfacet
  facet normal 0 0 1
    outer loop
      vertex 57.355 -16.563 63
      vertex 67.383 -16.805 63
      vertex 60.558 -12.244 63
    endloop
  endfacet
  facet normal 0 0 1
    outer loop
      vertex 63.322 -7.632 63
      vertex 60.558 -12.244 63
      vertex 70.561 -11.502 63
    endloop
  endfacet
  facet normal 0.67172 -0.7408 0
    outer loop
      vertex -35.484 18.224 48
      vertex -38.519 15.472 48
      vertex -38.519 15.472 0
    endloop
  endfacet
  facet normal 0.67172 -0.7408 0
    outer loop
      vertex -35.484 18.224 48
      vertex -38.519 15.472 0
      vertex -35.484 18.224 0
    endloop
  endfacet
  facet normal 0 0 1
    outer loop
      vertex 53.744 -20.547 63
      vertex 59.548 -26.351 63
      vertex 57.355 -16.563 63
    endloop
  endfacet
  facet normal 0 0 1
    outer loop
      vertex 45.441 -27.361 63
      vertex 50.001 -34.186 63
      vertex 49.76 -24.158 63
    endloop
  endfacet
  facet normal 0 0 1
    outer loop
      vertex 40.829 -30.126 63
      vertex 50.001 -34.186 63
      vertex 45.441 -27.361 63
    endloop
  endfacet
  facet normal -0.94154 0.33691 0
    outer loop
      vertex -53.346 4.322 0
      vertex -54.933 -0.113 0
      vertex -53.346 4.322 48
    endloop
  endfacet
  facet normal 0 0 1
    outer loop
      vertex -41.27 -40.53 48
      vertex -43.711 -37.24 48
      vertex -46.105 -44.497 48
    endloop
  endfacet
  facet normal 0 0 1
    outer loop
      vertex -39.451 -51.151 48
      vertex -35.667 -53.957 48
      vertex -35.484 -46.317 48
    endloop
  endfacet
  facet normal 0.59558 -0.8033 0
    outer loop
      vertex -32.193 20.664 48
      vertex -35.484 18.224 48
      vertex -35.484 18.224 0
    endloop
  endfacet
  facet normal 0 0 1
    outer loop
      vertex -51.332 -36.674 48
      vertex -48.911 -40.714 48
      vertex -43.711 -37.24 48
    endloop
  endfacet
  facet normal -0.51418 0.85768 0
    outer loop
      vertex -31.627 28.286 48
      vertex -35.667 25.864 0
      vertex -35.667 25.864 48
    endloop
  endfacet
  facet normal 0 0 1
    outer loop
      vertex 59.548 -26.351 63
      vertex 49.76 -24.158 63
      vertex 54.967 -30.503 63
    endloop
  endfacet
  facet normal 0 0 1
    outer loop
      vertex 63.7 -21.77 63
      vertex 57.355 -16.563 63
      vertex 59.548 -26.351 63
    endloop
  endfacet
  facet normal -0.59564 0.80325 0
    outer loop
      vertex -35.667 25.864 0
      vertex -39.451 23.058 0
      vertex -39.451 23.058 48
    endloop
  endfacet
  facet normal -0.59564 0.80325 0
    outer loop
      vertex -35.667 25.864 0
      vertex -39.451 23.058 48
      vertex -35.667 25.864 48
    endloop
  endfacet
  facet normal -0.67154 0.74097 0
    outer loop
      vertex -39.451 23.058 0
      vertex -42.941 19.895 0
      vertex -42.941 19.895 48
    endloop
  endfacet
  facet normal -0.67154 0.74097 0
    outer loop
      vertex -39.451 23.058 0
      vertex -42.941 19.895 48
      vertex -39.451 23.058 48
    endloop
  endfacet
  facet normal 0 0 1
    outer loop
      vertex -39.451 -51.151 48
      vertex -35.484 -46.317 48
      vertex -42.941 -47.988 48
    endloop
  endfacet
  facet normal -0.74096 0.67155 0
    outer loop
      vertex -42.941 19.895 0
      vertex -46.105 16.404 0
      vertex -46.105 16.404 48
    endloop
  endfacet
  facet normal -0.74096 0.67155 0
    outer loop
      vertex -42.941 19.895 0
      vertex -46.105 16.404 48
      vertex -42.941 19.895 48
    endloop
  endfacet
  facet normal 0 1 0
    outer loop
      vertex -16 -68 10
      vertex -16 -68 0
      vertex -51 -68 0
    endloop
  endfacet
  facet normal 0 1 0
    outer loop
      vertex -16 -68 10
      vertex -51 -68 0
      vertex -51 -68 10
    endloop
  endfacet
  facet normal -0.80317 0.59575 0
    outer loop
      vertex -46.105 16.404 0
      vertex -48.911 12.621 0
      vertex -48.911 12.621 48
    endloop
  endfacet
  facet normal -0.80317 0.59575 0
    outer loop
      vertex -46.105 16.404 0
      vertex -48.911 12.621 48
      vertex -46.105 16.404 48
    endloop
  endfacet
  facet normal -0.85783 0.51393 0
    outer loop
      vertex -48.911 12.621 0
      vertex -51.332 8.58 0
      vertex -51.332 8.58 48
    endloop
  endfacet
  facet normal -0.85783 0.51393 0
    outer loop
      vertex -48.911 12.621 0
      vertex -51.332 8.58 48
      vertex -48.911 12.621 48
    endloop
  endfacet
  facet normal -1 0 0
    outer loop
      vertex -16 -57 44.07899
      vertex -16 -57 20
      vertex -16 -88 44.07899
    endloop
  endfacet
  facet normal 0 0 -1
    outer loop
      vertex 39.109 76.401 0
      vertex 30.905 70.629 0
      vertex 33.288 78.484 0
    endloop
  endfacet
  facet normal 0 0 -1
    outer loop
      vertex 27.291 79.986 0
      vertex 33.288 78.484 0
      vertex 30.905 70.629 0
    endloop
  endfacet
  facet normal 0 0 -1
    outer loop
      vertex 30.905 70.629 0
      vertex 25.689 71.935 0
      vertex 27.291 79.986 0
    endloop
  endfacet
  facet normal 0 0 -1
    outer loop
      vertex 35.968 68.817 0
      vertex 30.905 70.629 0
      vertex 39.109 76.401 0
    endloop
  endfacet
  facet normal 0 0 -1
    outer loop
      vertex 25.689 71.935 0
      vertex 20.371 72.724 0
      vertex 27.291 79.986 0
    endloop
  endfacet
  facet normal 0 0 -1
    outer loop
      vertex 39 42 0
      vertex 4 42 0
      vertex 4 62 0
    endloop
  endfacet
  facet normal 0 0 -1
    outer loop
      vertex 39 42 0
      vertex 4 62 0
      vertex 39 62 0
    endloop
  endfacet
  facet normal 0 0 1
    outer loop
      vertex -45.817 -33.726 48
      vertex -51.332 -36.674 48
      vertex -43.711 -37.24 48
    endloop
  endfacet
  facet normal 0 0 1
    outer loop
      vertex -46.105 -44.497 48
      vertex -42.941 -47.988 48
      vertex -38.519 -43.566 48
    endloop
  endfacet
  facet normal -1 0 0
    outer loop
      vertex -16 -98 20
      vertex -16 -88 20
      vertex -16 -88 10
    endloop
  endfacet
  facet normal -1 0 0
    outer loop
      vertex -16 -68 10
      vertex -16 -88 10
      vertex -16 -88 20
    endloop
  endfacet
  facet normal 0 0 -1
    outer loop
      vertex -16 42 0
      vertex 4 62 0
      vertex 4 42 0
    endloop
  endfacet
  facet normal 0 1 0
    outer loop
      vertex 39 62 10
      vertex 39 62 0
      vertex 4 62 0
    endloop
  endfacet
  facet normal 0 1 0
    outer loop
      vertex 39 62 10
      vertex 4 62 0
      vertex 4 62 10
    endloop
  endfacet
  facet normal 0 0 -1
    outer loop
      vertex -16 82 0
      vertex 4 82 0
      vertex -16 62 0
    endloop
  endfacet
  facet normal 0 0 -1
    outer loop
      vertex 4 82 0
      vertex 4 62 0
      vertex -16 62 0
    endloop
  endfacet
  facet normal 0 0 -1
    outer loop
      vertex -16 42 0
      vertex -16 62 0
      vertex 4 62 0
    endloop
  endfacet
  facet normal 1 0 0
    outer loop
      vertex 4 62 10
      vertex 4 82 13.86825
      vertex 4 42 10
    endloop
  endfacet
  facet normal 1 0 0
    outer loop
      vertex 4 82 13.86825
      vertex 4 19.998 13.86825
      vertex 4 42 10
    endloop
  endfacet
  facet normal 1 0 0
    outer loop
      vertex 4 -68 0
      vertex 4 42 0
      vertex 4 19.998 13.86825
    endloop
  endfacet
  facet normal -0.90398 0.42758 0
    outer loop
      vertex -53.346 4.322 48
      vertex -51.332 8.58 48
      vertex -53.346 4.322 0
    endloop
  endfacet
  facet normal -0.90398 0.42758 0
    outer loop
      vertex -51.332 8.58 0
      vertex -53.346 4.322 0
      vertex -51.332 8.58 48
    endloop
  endfacet
  facet normal 1 0 0
    outer loop
      vertex 4 42 10
      vertex 4 19.998 13.86825
      vertex 4 42 0
    endloop
  endfacet
  facet normal 1 0 0
    outer loop
      vertex 4 62 0
      vertex 4 82 0
      vertex 4 62 10
    endloop
  endfacet
  facet normal -0.1467 0 0.98918
    outer loop
      vertex 4 82 13.86825
      vertex 0.175 19.998 13.301
      vertex 4 19.998 13.86825
    endloop
  endfacet
  facet normal 0 1 0
    outer loop
      vertex 0.175 19.998 13.301
      vertex 4 19.998 20
      vertex 4 19.998 13.86825
    endloop
  endfacet
  facet normal 0 0 1
    outer loop
      vertex -16 62 10
      vertex -51 62 10
      vertex -51 42 10
    endloop
  endfacet
  facet normal 0 0 1
    outer loop
      vertex -16 62 10
      vertex -51 42 10
      vertex -16 42 10
    endloop
  endfacet
  facet normal 0 -1 0
    outer loop
      vertex -51 42 10
      vertex -16 42 0
      vertex -16 42 10
    endloop
  endfacet
  facet normal 0 1 0
    outer loop
      vertex -16 62 10
      vertex -16 62 0
      vertex -51 62 10
    endloop
  endfacet
  facet normal -1 0 0
    outer loop
      vertex -16 62 0
      vertex -16 62 10
      vertex -16 82 0
    endloop
  endfacet
  facet normal 0 0 -1
    outer loop
      vertex -32.193 20.664 0
      vertex -35.484 18.224 0
      vertex -35.667 25.864 0
    endloop
  endfacet
  facet normal -0.90402 -0.42749 0
    outer loop
      vertex -51.332 -36.674 0
      vertex -51.332 -36.674 48
      vertex -53.346 -32.415 0
    endloop
  endfacet
  facet normal 0 0 -1
    outer loop
      vertex -28.679 22.77 0
      vertex -32.193 20.664 0
      vertex -35.667 25.864 0
    endloop
  endfacet
  facet normal 0 0 -1
    outer loop
      vertex -35.667 25.864 0
      vertex -31.627 28.286 0
      vertex -28.679 22.77 0
    endloop
  endfacet
  facet normal -1 0 0
    outer loop
      vertex -16 -88 20
      vertex -16 -88 44.07899
      vertex -16 -57 20
    endloop
  endfacet
  facet normal 0 0 -1
    outer loop
      vertex -28.002 23.09031 0
      vertex -28.679 22.77 0
      vertex -31.627 28.286 0
    endloop
  endfacet
  facet normal 0 0 1
    outer loop
      vertex 39.109 -40.008 63
      vertex 44.698 -37.365 63
      vertex 35.968 -32.425 63
    endloop
  endfacet
  facet normal 0 1 0
    outer loop
      vertex -9.92064 -57 43.19049
      vertex -16 -57 20
      vertex -10.705 -57 43.229
    endloop
  endfacet
  facet normal 1 0 0
    outer loop
      vertex -28.002 23.09031 48
      vertex -28.002 23.09031 0
      vertex -28.002 30.0006 48
    endloop
  endfacet
  facet normal 0 1 0
    outer loop
      vertex -16 -57 44.07899
      vertex -15.365 -57 43.92
      vertex -16 -57 20
    endloop
  endfacet
  facet normal 0 0 -1
    outer loop
      vertex -28.002 30.0006 0
      vertex -28.002 23.09031 0
      vertex -31.627 28.286 0
    endloop
  endfacet
  facet normal 0 0 1
    outer loop
      vertex 30.905 -34.236 63
      vertex 33.288 -42.091 63
      vertex 35.968 -32.425 63
    endloop
  endfacet
  facet normal 0 0 1
    outer loop
      vertex 27.291 -43.593 63
      vertex 33.288 -42.091 63
      vertex 25.689 -35.543 63
    endloop
  endfacet
  facet normal 0 0 1
    outer loop
      vertex 21.175 -44.5 63
      vertex 27.291 -43.593 63
      vertex 20.371 -36.332 63
    endloop
  endfacet
  facet normal 0 0 1
    outer loop
      vertex 39.109 -40.008 63
      vertex 35.968 -32.425 63
      vertex 33.288 -42.091 63
    endloop
  endfacet
  facet normal 0 1 0
    outer loop
      vertex -15.365 -57 43.92
      vertex -10.705 -57 43.229
      vertex -16 -57 20
    endloop
  endfacet
  facet normal 0 1 0
    outer loop
      vertex -5.21564 -57 43.03568
      vertex 4 -57 20
      vertex -6 -57 42.99717
    endloop
  endfacet
  facet normal 0 1 0
    outer loop
      vertex -9.92064 -57 43.19049
      vertex -6 -57 42.99717
      vertex -16 -57 20
    endloop
  endfacet
  facet normal 0 0 -1
    outer loop
      vertex -16 42 0
      vertex 4 42 0
      vertex -16 -68 0
    endloop
  endfacet
  facet normal 0 0 1
    outer loop
      vertex 20.371 -36.332 63
      vertex 19.002 -36.39929 63
      vertex 21.175 -44.5 63
    endloop
  endfacet
  facet normal -1 0 0
    outer loop
      vertex -16 19.998 13.86825
      vertex -16 82 13.86825
      vertex -16 42 10
    endloop
  endfacet
  facet normal 0.1467 0 0.98918
    outer loop
      vertex -16 19.998 13.86825
      vertex -12.175 82 13.301
      vertex -16 82 13.86825
    endloop
  endfacet
  facet normal 0 1 0
    outer loop
      vertex 4 -57 44.07899
      vertex 4 -57 20
      vertex 3.365 -57 43.92
    endloop
  endfacet
  facet normal 0 1 0
    outer loop
      vertex 3.365 -57 43.92
      vertex 4 -57 20
      vertex -1.295 -57 43.229
    endloop
  endfacet
  facet normal 0 1 0
    outer loop
      vertex -5.21564 -57 43.03568
      vertex -1.295 -57 43.229
      vertex 4 -57 20
    endloop
  endfacet
  facet normal -0.24289 0 0.97006
    outer loop
      vertex 4 -88 44.07899
      vertex 4 -57 44.07899
      vertex 3.365 -57 43.92
    endloop
  endfacet
  facet normal -1 0 0
    outer loop
      vertex -16 -68 0
      vertex -16 -57 20
      vertex -16 19.998 13.86825
    endloop
  endfacet
  facet normal -0.04904 0.00002 0.9988
    outer loop
      vertex -6 -57 42.99717
      vertex -6 -88 42.99781
      vertex -5.21564 -57 43.03568
    endloop
  endfacet
  facet normal 0.5957 -0.80321 0
    outer loop
      vertex 50.001 -34.186 63
      vertex 50.001 -34.186 0
      vertex 54.967 -30.503 0
    endloop
  endfacet
  facet normal -0.04925 0 0.99879
    outer loop
      vertex -2.17737 -88 43.18549
      vertex -1.295 -57 43.229
      vertex -5.21564 -57 43.03568
    endloop
  endfacet
  facet normal 1 0 0
    outer loop
      vertex 39 62 0
      vertex 39 62 10
      vertex 39 42 10
    endloop
  endfacet
  facet normal 1 0 0
    outer loop
      vertex 39 62 0
      vertex 39 42 10
      vertex 39 42 0
    endloop
  endfacet
  facet normal -1 0 0
    outer loop
      vertex -51 62 10
      vertex -51 62 0
      vertex -51 42 0
    endloop
  endfacet
  facet normal -1 0 0
    outer loop
      vertex -51 62 10
      vertex -51 42 0
      vertex -51 42 10
    endloop
  endfacet
  facet normal -1 0 0
    outer loop
      vertex -16 -88 10
      vertex -16 -88 0
      vertex -16 -98 0
    endloop
  endfacet
  facet normal -1 0 0
    outer loop
      vertex -16 -88 10
      vertex -16 -98 0
      vertex -16 -98 20
    endloop
  endfacet
  facet normal 0 0 1
    outer loop
      vertex 50.001 -34.186 63
      vertex 40.829 -30.126 63
      vertex 44.698 -37.365 63
    endloop
  endfacet
  facet normal 0 0 1
    outer loop
      vertex 54.967 -30.503 63
      vertex 49.76 -24.158 63
      vertex 50.001 -34.186 63
    endloop
  endfacet
  facet normal 0 0 1
    outer loop
      vertex 40.829 -30.126 63
      vertex 35.968 -32.425 63
      vertex 44.698 -37.365 63
    endloop
  endfacet
  facet normal 0 0 -1
    outer loop
      vertex -53.346 4.322 0
      vertex -51.332 8.58 0
      vertex -45.817 5.632 0
    endloop
  endfacet
  facet normal 0 0 -1
    outer loop
      vertex -45.817 5.632 0
      vertex -47.568 1.929 0
      vertex -53.346 4.322 0
    endloop
  endfacet
  facet normal 0 0 -1
    outer loop
      vertex -43.711 9.146 0
      vertex -45.817 5.632 0
      vertex -51.332 8.58 0
    endloop
  endfacet
  facet normal 0 -1 0
    outer loop
      vertex -16 42 0
      vertex -51 42 10
      vertex -51 42 0
    endloop
  endfacet
  facet normal 0 0 -1
    outer loop
      vertex -48.911 12.621 0
      vertex -46.105 16.404 0
      vertex -43.711 9.146 0
    endloop
  endfacet
  facet normal 0 0 -1
    outer loop
      vertex -51.332 8.58 0
      vertex -48.911 12.621 0
      vertex -43.711 9.146 0
    endloop
  endfacet
  facet normal 0 1 0
    outer loop
      vertex -51 62 10
      vertex -16 62 0
      vertex -51 62 0
    endloop
  endfacet
  facet normal 0.59558 0.8033 0
    outer loop
      vertex -32.193 -48.757 48
      vertex -32.193 -48.757 0
      vertex -35.484 -46.317 48
    endloop
  endfacet
  facet normal 0 1 0
    outer loop
      vertex 4 19.998 20
      vertex 0.175 19.998 13.301
      vertex -6 19.998 12.998
    endloop
  endfacet
  facet normal 0 1 0
    outer loop
      vertex -12.175 19.998 13.301
      vertex -16 19.998 20
      vertex -6 19.998 12.998
    endloop
  endfacet
  facet normal 0 1 0
    outer loop
      vertex -16 19.998 13.86825
      vertex -16 19.998 20
      vertex -12.175 19.998 13.301
    endloop
  endfacet
  facet normal 0 1 0
    outer loop
      vertex 4 19.998 20
      vertex -6 19.998 12.998
      vertex -16 19.998 20
    endloop
  endfacet
  facet normal -0.51418 -0.85768 0
    outer loop
      vertex -35.667 -53.957 0
      vertex -31.627 -56.379 0
      vertex -35.667 -53.957 48
    endloop
  endfacet
  facet normal 0.59558 -0.8033 0
    outer loop
      vertex -32.193 20.664 48
      vertex -35.484 18.224 0
      vertex -32.193 20.664 0
    endloop
  endfacet
  facet normal 0 0 -1
    outer loop
      vertex -41.27 12.437 0
      vertex -43.711 9.146 0
      vertex -46.105 16.404 0
    endloop
  endfacet
  facet normal 0 0 -1
    outer loop
      vertex -42.941 19.895 0
      vertex -41.27 12.437 0
      vertex -46.105 16.404 0
    endloop
  endfacet
  facet normal 0 0 -1
    outer loop
      vertex -39.451 23.058 0
      vertex -35.484 18.224 0
      vertex -42.941 19.895 0
    endloop
  endfacet
  facet normal 0 0 -1
    outer loop
      vertex -38.519 15.472 0
      vertex -41.27 12.437 0
      vertex -42.941 19.895 0
    endloop
  endfacet
  facet normal 0 0 -1
    outer loop
      vertex -39.451 23.058 0
      vertex -35.667 25.864 0
      vertex -35.484 18.224 0
    endloop
  endfacet
  facet normal 0 0 -1
    outer loop
      vertex -38.519 15.472 0
      vertex -42.941 19.895 0
      vertex -35.484 18.224 0
    endloop
  endfacet
  facet normal 0.51406 -0.85775 0
    outer loop
      vertex -28.679 22.77 0
      vertex -28.679 22.77 48
      vertex -32.193 20.664 0
    endloop
  endfacet
  facet normal 0.51406 -0.85775 0
    outer loop
      vertex -32.193 20.664 48
      vertex -32.193 20.664 0
      vertex -28.679 22.77 48
    endloop
  endfacet
  facet normal 0 0 -1
    outer loop
      vertex 40.829 -30.126 0
      vertex 44.698 -37.365 0
      vertex 35.968 -32.425 0
    endloop
  endfacet
  facet normal 0.42768 -0.90393 0
    outer loop
      vertex -28.679 22.77 48
      vertex -28.679 22.77 0
      vertex -28.002 23.09031 0
    endloop
  endfacet
  facet normal 0.42768 -0.90393 0
    outer loop
      vertex -28.679 22.77 48
      vertex -28.002 23.09031 0
      vertex -28.002 23.09031 48
    endloop
  endfacet
  facet normal -1 0 0
    outer loop
      vertex -16 -68 10
      vertex -16 -88 20
      vertex -16 -57 20
    endloop
  endfacet
  facet normal -1 0 0
    outer loop
      vertex -16 82 0
      vertex -16 62 10
      vertex -16 82 13.86825
    endloop
  endfacet
  facet normal 0 -1 0
    outer loop
      vertex -16 -88 44.07899
      vertex -16 -88 20
      vertex -15.365 -88 43.92
    endloop
  endfacet
  facet normal 0 1 0
    outer loop
      vertex -16 -57 20
      vertex -6 -57 42.99717
      vertex 4 -57 20
    endloop
  endfacet
  facet normal 1 0 0
    outer loop
      vertex -28.002 30.0006 0
      vertex -28.002 30.0006 48
      vertex -28.002 23.09031 0
    endloop
  endfacet
  facet normal 0.33692 -0.94153 0
    outer loop
      vertex 39.109 -40.008 0
      vertex 39.109 -40.008 63
      vertex 33.288 -42.091 0
    endloop
  endfacet
  facet normal 0 0 1
    outer loop
      vertex 4 19.998 20
      vertex -16 19.998 20
      vertex 4 -57 20
    endloop
  endfacet
  facet normal 0 -1 0
    outer loop
      vertex -2.17737 -88 43.18549
      vertex 4 -88 20
      vertex -1.295 -88 43.229
    endloop
  endfacet
  facet normal 0.42768 0.90393 0
    outer loop
      vertex -28.002 -51.18331 48
      vertex -28.002 -51.18331 0
      vertex -28.679 -50.863 0
    endloop
  endfacet
  facet normal 0.42768 0.90393 0
    outer loop
      vertex -28.002 -51.18331 48
      vertex -28.679 -50.863 0
      vertex -28.679 -50.863 48
    endloop
  endfacet
  facet normal 0 -1 0
    outer loop
      vertex -1.295 -88 43.229
      vertex 4 -88 20
      vertex 3.365 -88 43.92
    endloop
  endfacet
  facet normal 0 -1 0
    outer loop
      vertex 4 -88 44.07899
      vertex 3.365 -88 43.92
      vertex 4 -88 20
    endloop
  endfacet
  facet normal 0 -1 0
    outer loop
      vertex 4 -88 20
      vertex -2.17737 -88 43.18549
      vertex -6 -88 42.99781
    endloop
  endfacet
  facet normal 0 -1 0
    outer loop
      vertex -6.88237 -88 43.04132
      vertex -16 -88 20
      vertex -6 -88 42.99781
    endloop
  endfacet
  facet normal 0 -1 0
    outer loop
      vertex -10.705 -88 43.229
      vertex -16 -88 20
      vertex -6.88237 -88 43.04132
    endloop
  endfacet
  facet normal 0 -1 0
    outer loop
      vertex -10.705 -88 43.229
      vertex -15.365 -88 43.92
      vertex -16 -88 20
    endloop
  endfacet
  facet normal 0 -1 0
    outer loop
      vertex 4 -88 20
      vertex -6 -88 42.99781
      vertex -16 -88 20
    endloop
  endfacet
  facet normal 0.51406 0.85775 0
    outer loop
      vertex -28.679 -50.863 48
      vertex -28.679 -50.863 0
      vertex -32.193 -48.757 0
    endloop
  endfacet
  facet normal 0.51406 0.85775 0
    outer loop
      vertex -28.679 -50.863 48
      vertex -32.193 -48.757 0
      vertex -32.193 -48.757 48
    endloop
  endfacet
  facet normal -0.51418 0.85768 0
    outer loop
      vertex -31.627 28.286 0
      vertex -35.667 25.864 0
      vertex -31.627 28.286 48
    endloop
  endfacet
  facet normal 1 0 0
    outer loop
      vertex -28.002 -51.18331 0
      vertex -28.002 -51.18331 48
      vertex -28.002 -58.0936 48
    endloop
  endfacet
  facet normal 0 1 0
    outer loop
      vertex 4 82 13.86825
      vertex 4 82 0
      vertex 0.175 82 13.301
    endloop
  endfacet
  facet normal -1 0 0
    outer loop
      vertex -16 -57 20
      vertex -16 -68 0
      vertex -16 -68 10
    endloop
  endfacet
  facet normal 0 1 0
    outer loop
      vertex 4 82 0
      vertex -16 82 0
      vertex -6 82 12.998
    endloop
  endfacet
  facet normal 0 1 0
    outer loop
      vertex -6 82 12.998
      vertex 0.175 82 13.301
      vertex 4 82 0
    endloop
  endfacet
  facet normal 0 1 0
    outer loop
      vertex -12.175 82 13.301
      vertex -6 82 12.998
      vertex -16 82 0
    endloop
  endfacet
  facet normal 0 1 0
    outer loop
      vertex -16 82 13.86825
      vertex -12.175 82 13.301
      vertex -16 82 0
    endloop
  endfacet
  facet normal -0.04901 0 0.9988
    outer loop
      vertex 0.175 19.998 13.301
      vertex 0.175 82 13.301
      vertex -6 82 12.998
    endloop
  endfacet
  facet normal 1 0 0
    outer loop
      vertex -28.002 -51.18331 0
      vertex -28.002 -58.0936 48
      vertex -28.002 -58.0936 0
    endloop
  endfacet
  facet normal -0.1467 0 0.98918
    outer loop
      vertex 0.175 19.998 13.301
      vertex 4 82 13.86825
      vertex 0.175 82 13.301
    endloop
  endfacet
  facet normal -0.42758 0.90398 0
    outer loop
      vertex -31.627 28.286 0
      vertex -31.627 28.286 48
      vertex -28.002 30.0006 0
    endloop
  endfacet
  facet normal -0.42758 0.90398 0
    outer loop
      vertex -31.627 28.286 48
      vertex -28.002 30.0006 48
      vertex -28.002 30.0006 0
    endloop
  endfacet
  facet normal 0 0 -1
    outer loop
      vertex -16 -68 0
      vertex 4 42 0
      vertex 4 -68 0
    endloop
  endfacet
  facet normal -0.51418 -0.85768 0
    outer loop
      vertex -31.627 -56.379 48
      vertex -35.667 -53.957 48
      vertex -31.627 -56.379 0
    endloop
  endfacet
  facet normal 0 0 -1
    outer loop
      vertex 35.968 -32.425 0
      vertex 33.288 -42.091 0
      vertex 30.905 -34.236 0
    endloop
  endfacet
  facet normal -0.42758 -0.90398 0
    outer loop
      vertex -31.627 -56.379 48
      vertex -31.627 -56.379 0
      vertex -28.002 -58.0936 48
    endloop
  endfacet
  facet normal -0.42758 -0.90398 0
    outer loop
      vertex -28.002 -58.0936 0
      vertex -28.002 -58.0936 48
      vertex -31.627 -56.379 0
    endloop
  endfacet
  facet normal 0 0 -1
    outer loop
      vertex 25.689 -35.543 0
      vertex 30.905 -34.236 0
      vertex 33.288 -42.091 0
    endloop
  endfacet
  facet normal 0 0 -1
    outer loop
      vertex 33.288 -42.091 0
      vertex 27.291 -43.593 0
      vertex 25.689 -35.543 0
    endloop
  endfacet
  facet normal 0 0 -1
    outer loop
      vertex 25.689 -35.543 0
      vertex 27.291 -43.593 0
      vertex 20.371 -36.332 0
    endloop
  endfacet
  facet normal 0 0 1
    outer loop
      vertex 27.291 79.986 63
      vertex 30.905 70.629 63
      vertex 33.288 78.484 63
    endloop
  endfacet
  facet normal 0 0 1
    outer loop
      vertex 33.288 78.484 63
      vertex 30.905 70.629 63
      vertex 39.109 76.401 63
    endloop
  endfacet
  facet normal 0.59558 0.8033 0
    outer loop
      vertex -35.484 -46.317 48
      vertex -32.193 -48.757 0
      vertex -35.484 -46.317 0
    endloop
  endfacet
  facet normal 0 0 1
    outer loop
      vertex 25.689 71.935 63
      vertex 27.291 79.986 63
      vertex 20.371 72.724 63
    endloop
  endfacet
  facet normal 0 0 -1
    outer loop
      vertex 27.291 -43.593 0
      vertex 21.175 -44.5 0
      vertex 20.371 -36.332 0
    endloop
  endfacet
  facet normal 0.67159 0.74092 0
    outer loop
      vertex -35.484 -46.317 48
      vertex -35.484 -46.317 0
      vertex -38.519 -43.566 0
    endloop
  endfacet
  facet normal 0.67159 0.74092 0
    outer loop
      vertex -35.484 -46.317 48
      vertex -38.519 -43.566 0
      vertex -38.519 -43.566 48
    endloop
  endfacet
  facet normal 0 0 1
    outer loop
      vertex 20.371 72.724 63
      vertex 21.175 80.893 63
      vertex 19.002 72.79129 63
    endloop
  endfacet
  facet normal 0 0 1
    outer loop
      vertex 30.905 70.629 63
      vertex 27.291 79.986 63
      vertex 25.689 71.935 63
    endloop
  endfacet
  facet normal 0.74103 0.67147 0
    outer loop
      vertex -41.27 -40.53 48
      vertex -38.519 -43.566 48
      vertex -38.519 -43.566 0
    endloop
  endfacet
  facet normal 0.74103 0.67147 0
    outer loop
      vertex -41.27 -40.53 48
      vertex -38.519 -43.566 0
      vertex -41.27 -40.53 0
    endloop
  endfacet
  facet normal 0.80309 0.59585 0
    outer loop
      vertex -43.711 -37.24 48
      vertex -41.27 -40.53 48
      vertex -41.27 -40.53 0
    endloop
  endfacet
  facet normal 0.80309 0.59585 0
    outer loop
      vertex -43.711 -37.24 48
      vertex -41.27 -40.53 0
      vertex -43.711 -37.24 0
    endloop
  endfacet
  facet normal 0.85775 0.51406 0
    outer loop
      vertex -45.817 -33.726 48
      vertex -43.711 -37.24 48
      vertex -43.711 -37.24 0
    endloop
  endfacet
  facet normal 0.85775 0.51406 0
    outer loop
      vertex -45.817 -33.726 48
      vertex -43.711 -37.24 0
      vertex -45.817 -33.726 0
    endloop
  endfacet
  facet normal -0.59564 -0.80325 0
    outer loop
      vertex -39.451 -51.151 48
      vertex -35.667 -53.957 0
      vertex -35.667 -53.957 48
    endloop
  endfacet
  facet normal 0 0 1
    outer loop
      vertex 35.968 68.817 63
      vertex 39.109 76.401 63
      vertex 30.905 70.629 63
    endloop
  endfacet
  facet normal 0 0 1
    outer loop
      vertex 27.291 79.986 63
      vertex 21.175 80.893 63
      vertex 20.371 72.724 63
    endloop
  endfacet
  facet normal 0 0 1
    outer loop
      vertex 19.002 80.99963 63
      vertex 19.002 72.79129 63
      vertex 21.175 80.893 63
    endloop
  endfacet
  facet normal -0.33696 -0.94152 0
    outer loop
      vertex 35.968 68.817 63
      vertex 30.905 70.629 63
      vertex 35.968 68.817 0
    endloop
  endfacet
  facet normal 0.33692 0.94153 0
    outer loop
      vertex 39.109 76.401 63
      vertex 39.109 76.401 0
      vertex 33.288 78.484 0
    endloop
  endfacet
  facet normal 0.33692 0.94153 0
    outer loop
      vertex 39.109 76.401 63
      vertex 33.288 78.484 0
      vertex 33.288 78.484 63
    endloop
  endfacet
  facet normal 1 0 0
    outer loop
      vertex 4 -57 20
      vertex 4 -68 10
      vertex 4 -68 0
    endloop
  endfacet
  facet normal 0.24295 0.97004 0
    outer loop
      vertex 27.291 79.986 63
      vertex 33.288 78.484 63
      vertex 33.288 78.484 0
    endloop
  endfacet
  facet normal -1 0 0
    outer loop
      vertex -16 -68 0
      vertex -16 19.998 13.86825
      vertex -16 42 0
    endloop
  endfacet
  facet normal -0.85777 -0.51403 0
    outer loop
      vertex -51.332 -36.674 0
      vertex -48.911 -40.714 0
      vertex -48.911 -40.714 48
    endloop
  endfacet
  facet normal -0.85777 -0.51403 0
    outer loop
      vertex -51.332 -36.674 0
      vertex -48.911 -40.714 48
      vertex -51.332 -36.674 48
    endloop
  endfacet
  facet normal 0.1467 -0.98918 0
    outer loop
      vertex 27.291 -43.593 0
      vertex 27.291 -43.593 63
      vertex 21.175 -44.5 0
    endloop
  endfacet
  facet normal -0.80317 -0.59575 0
    outer loop
      vertex -46.105 -44.497 48
      vertex -48.911 -40.714 48
      vertex -46.105 -44.497 0
    endloop
  endfacet
  facet normal -0.80317 -0.59575 0
    outer loop
      vertex -48.911 -40.714 0
      vertex -46.105 -44.497 0
      vertex -48.911 -40.714 48
    endloop
  endfacet
  facet normal 0.1467 0 0.98918
    outer loop
      vertex -12.175 82 13.301
      vertex -16 19.998 13.86825
      vertex -12.175 19.998 13.301
    endloop
  endfacet
  facet normal 0.24295 -0.97004 0
    outer loop
      vertex 27.291 -43.593 0
      vertex 33.288 -42.091 0
      vertex 27.291 -43.593 63
    endloop
  endfacet
  facet normal 1 0 0
    outer loop
      vertex 4 82 13.86825
      vertex 4 62 10
      vertex 4 82 0
    endloop
  endfacet
  facet normal -0.74096 -0.67155 0
    outer loop
      vertex -42.941 -47.988 48
      vertex -46.105 -44.497 48
      vertex -42.941 -47.988 0
    endloop
  endfacet
  facet normal -0.74096 -0.67155 0
    outer loop
      vertex -46.105 -44.497 0
      vertex -42.941 -47.988 0
      vertex -46.105 -44.497 48
    endloop
  endfacet
  facet normal 1 0 0
    outer loop
      vertex 4 19.998 20
      vertex 4 -57 20
      vertex 4 19.998 13.86825
    endloop
  endfacet
  facet normal 1 0 0
    outer loop
      vertex 4 -68 0
      vertex 4 19.998 13.86825
      vertex 4 -57 20
    endloop
  endfacet
  facet normal -0.67154 -0.74097 0
    outer loop
      vertex -39.451 -51.151 0
      vertex -39.451 -51.151 48
      vertex -42.941 -47.988 48
    endloop
  endfacet
  facet normal -0.67154 -0.74097 0
    outer loop
      vertex -39.451 -51.151 0
      vertex -42.941 -47.988 48
      vertex -42.941 -47.988 0
    endloop
  endfacet
  facet normal -1 0 0
    outer loop
      vertex -16 62 10
      vertex -16 42 10
      vertex -16 82 13.86825
    endloop
  endfacet
  facet normal -0.59564 -0.80325 0
    outer loop
      vertex -39.451 -51.151 48
      vertex -39.451 -51.151 0
      vertex -35.667 -53.957 0
    endloop
  endfacet
  facet normal 0 0 -1
    outer loop
      vertex 19.002 -36.39929 0
      vertex 20.371 -36.332 0
      vertex 21.175 -44.5 0
    endloop
  endfacet
  facet normal 0 0 -1
    outer loop
      vertex 19.002 -44.60698 0
      vertex 19.002 -36.39929 0
      vertex 21.175 -44.5 0
    endloop
  endfacet
  facet normal -0.04909 -0.99879 0
    outer loop
      vertex 20.371 72.724 63
      vertex 19.002 72.79129 63
      vertex 19.002 72.79129 0
    endloop
  endfacet
  facet normal -0.04909 -0.99879 0
    outer loop
      vertex 20.371 72.724 63
      vertex 19.002 72.79129 0
      vertex 20.371 72.724 0
    endloop
  endfacet
  facet normal -1 0 0
    outer loop
      vertex -16 19.998 20
      vertex -16 19.998 13.86825
      vertex -16 -57 20
    endloop
  endfacet
  facet normal 0 0 1
    outer loop
      vertex -16 -57 20
      vertex 4 -57 20
      vertex -16 19.998 20
    endloop
  endfacet
  facet normal -0.04925 0 0.99879
    outer loop
      vertex -1.295 -88 43.229
      vertex -1.295 -57 43.229
      vertex -2.17737 -88 43.18549
    endloop
  endfacet
  facet normal 0 0 -1
    outer loop
      vertex -57 -14.047 0
      vertex -56.769 -9.342 0
      vertex -50.545 -9.955 0
    endloop
  endfacet
  facet normal 0 0 -1
    outer loop
      vertex -53.346 4.322 0
      vertex -48.949 -1.928 0
      vertex -54.933 -0.113 0
    endloop
  endfacet
  facet normal 0.04925 0.00002 0.99879
    outer loop
      vertex -9.92064 -57 43.19049
      vertex -6.88237 -88 43.04132
      vertex -6 -57 42.99717
    endloop
  endfacet
  facet normal 0.04925 0.00002 0.99879
    outer loop
      vertex -6 -88 42.99781
      vertex -6 -57 42.99717
      vertex -6.88237 -88 43.04132
    endloop
  endfacet
  facet normal -0.42739 -0.90407 0
    outer loop
      vertex 40.829 66.519 63
      vertex 35.968 68.817 63
      vertex 35.968 68.817 0
    endloop
  endfacet
  facet normal -0.42739 -0.90407 0
    outer loop
      vertex 40.829 66.519 63
      vertex 35.968 68.817 0
      vertex 40.829 66.519 0
    endloop
  endfacet
  facet normal -0.51419 -0.85767 0
    outer loop
      vertex 40.829 66.519 0
      vertex 45.441 63.754 0
      vertex 40.829 66.519 63
    endloop
  endfacet
  facet normal -0.51419 -0.85767 0
    outer loop
      vertex 45.441 63.754 63
      vertex 40.829 66.519 63
      vertex 45.441 63.754 0
    endloop
  endfacet
  facet normal 0.04904 0 0.9988
    outer loop
      vertex -6.88237 -88 43.04132
      vertex -9.92064 -57 43.19049
      vertex -10.705 -88 43.229
    endloop
  endfacet
  facet normal 0.04904 0 0.9988
    outer loop
      vertex -10.705 -57 43.229
      vertex -10.705 -88 43.229
      vertex -9.92064 -57 43.19049
    endloop
  endfacet
  facet normal -0.04901 0 0.9988
    outer loop
      vertex -6 82 12.998
      vertex -6 19.998 12.998
      vertex 0.175 19.998 13.301
    endloop
  endfacet
  facet normal 0.14668 0 0.98918
    outer loop
      vertex -10.705 -57 43.229
      vertex -15.365 -57 43.92
      vertex -15.365 -88 43.92
    endloop
  endfacet
  facet normal 0.5957 0.80321 0
    outer loop
      vertex 54.967 66.896 0
      vertex 50.001 70.579 0
      vertex 50.001 70.579 63
    endloop
  endfacet
  facet normal 0.5957 0.80321 0
    outer loop
      vertex 54.967 66.896 0
      vertex 50.001 70.579 63
      vertex 54.967 66.896 63
    endloop
  endfacet
  facet normal -0.14676 -0.98917 0
    outer loop
      vertex 25.689 71.935 63
      vertex 20.371 72.724 63
      vertex 20.371 72.724 0
    endloop
  endfacet
  facet normal -0.14676 -0.98917 0
    outer loop
      vertex 25.689 71.935 63
      vertex 20.371 72.724 0
      vertex 25.689 71.935 0
    endloop
  endfacet
  facet normal 0.14668 0 0.98918
    outer loop
      vertex -10.705 -88 43.229
      vertex -10.705 -57 43.229
      vertex -15.365 -88 43.92
    endloop
  endfacet
  facet normal 0.51404 0.85776 0
    outer loop
      vertex 50.001 70.579 0
      vertex 44.698 73.757 0
      vertex 44.698 73.757 63
    endloop
  endfacet
  facet normal 0.51404 0.85776 0
    outer loop
      vertex 50.001 70.579 0
      vertex 44.698 73.757 63
      vertex 50.001 70.579 63
    endloop
  endfacet
  facet normal 0.42763 0.90395 0
    outer loop
      vertex 44.698 73.757 0
      vertex 39.109 76.401 0
      vertex 39.109 76.401 63
    endloop
  endfacet
  facet normal 0.42763 0.90395 0
    outer loop
      vertex 44.698 73.757 0
      vertex 39.109 76.401 63
      vertex 44.698 73.757 63
    endloop
  endfacet
  facet normal 0.24289 0 0.97006
    outer loop
      vertex -15.365 -88 43.92
      vertex -15.365 -57 43.92
      vertex -16 -57 44.07899
    endloop
  endfacet
  facet normal 0.24289 0 0.97006
    outer loop
      vertex -15.365 -88 43.92
      vertex -16 -57 44.07899
      vertex -16 -88 44.07899
    endloop
  endfacet
  facet normal -0.14668 0 0.98918
    outer loop
      vertex -1.295 -88 43.229
      vertex 3.365 -88 43.92
      vertex -1.295 -57 43.229
    endloop
  endfacet
  facet normal -0.904 -0.42754 0
    outer loop
      vertex 65.621 39.164 0
      vertex 65.621 39.164 63
      vertex 63.322 44.025 63
    endloop
  endfacet
  facet normal -0.9415 -0.33702 0
    outer loop
      vertex 65.621 39.164 63
      vertex 65.621 39.164 0
      vertex 67.433 34.102 0
    endloop
  endfacet
  facet normal -0.9415 -0.33702 0
    outer loop
      vertex 65.621 39.164 63
      vertex 67.433 34.102 0
      vertex 67.433 34.102 63
    endloop
  endfacet
  facet normal -0.04904 0.00002 0.9988
    outer loop
      vertex -2.17737 -88 43.18549
      vertex -5.21564 -57 43.03568
      vertex -6 -88 42.99781
    endloop
  endfacet
  facet normal -0.97005 -0.24289 0
    outer loop
      vertex 67.433 34.102 63
      vertex 67.433 34.102 0
      vertex 68.739 28.886 63
    endloop
  endfacet
  facet normal -0.24289 0 0.97006
    outer loop
      vertex 4 -88 44.07899
      vertex 3.365 -57 43.92
      vertex 3.365 -88 43.92
    endloop
  endfacet
  facet normal 0.97004 0.24295 0
    outer loop
      vertex 76.789 30.487 63
      vertex 75.287 36.484 0
      vertex 75.287 36.484 63
    endloop
  endfacet
  facet normal -0.14668 0 0.98918
    outer loop
      vertex 3.365 -57 43.92
      vertex -1.295 -57 43.229
      vertex 3.365 -88 43.92
    endloop
  endfacet
  facet normal 0.94153 0.33692 0
    outer loop
      vertex 73.204 42.305 0
      vertex 73.204 42.305 63
      vertex 75.287 36.484 63
    endloop
  endfacet
  facet normal 0.94153 0.33692 0
    outer loop
      vertex 73.204 42.305 0
      vertex 75.287 36.484 63
      vertex 75.287 36.484 0
    endloop
  endfacet
  facet normal 0.90407 0.42738 0
    outer loop
      vertex -47.568 -30.022 48
      vertex -45.817 -33.726 48
      vertex -45.817 -33.726 0
    endloop
  endfacet
  facet normal 0.90401 0.4275 0
    outer loop
      vertex 70.561 47.894 0
      vertex 70.561 47.894 63
      vertex 73.204 42.305 63
    endloop
  endfacet
  facet normal 0.90401 0.4275 0
    outer loop
      vertex 70.561 47.894 0
      vertex 73.204 42.305 63
      vertex 73.204 42.305 0
    endloop
  endfacet
  facet normal -0.24289 -0.97005 0
    outer loop
      vertex 30.905 70.629 63
      vertex 25.689 71.935 63
      vertex 25.689 71.935 0
    endloop
  endfacet
  facet normal -0.24289 -0.97005 0
    outer loop
      vertex 30.905 70.629 63
      vertex 25.689 71.935 0
      vertex 30.905 70.629 0
    endloop
  endfacet
  facet normal 0.85776 0.51404 0
    outer loop
      vertex 67.383 53.197 0
      vertex 67.383 53.197 63
      vertex 70.561 47.894 63
    endloop
  endfacet
  facet normal 0.85776 0.51404 0
    outer loop
      vertex 67.383 53.197 0
      vertex 70.561 47.894 63
      vertex 70.561 47.894 0
    endloop
  endfacet
  facet normal 0 0 1
    outer loop
      vertex 4 -88 20
      vertex -16 -88 20
      vertex -16 -98 20
    endloop
  endfacet
  facet normal 0 0 1
    outer loop
      vertex 4 -88 20
      vertex -16 -98 20
      vertex 4 -98 20
    endloop
  endfacet
  facet normal 0.97006 0.24288 0
    outer loop
      vertex -49.944 -22.191 48
      vertex -48.949 -26.165 48
      vertex -49.944 -22.191 0
    endloop
  endfacet
  facet normal 0.80321 0.5957 0
    outer loop
      vertex 63.7 58.163 63
      vertex 67.383 53.197 63
      vertex 67.383 53.197 0
    endloop
  endfacet
  facet normal 0.98918 0.14668 0
    outer loop
      vertex -49.944 -22.191 0
      vertex -50.545 -18.138 0
      vertex -49.944 -22.191 48
    endloop
  endfacet
  facet normal 0.98918 0.14668 0
    outer loop
      vertex -50.545 -18.138 48
      vertex -49.944 -22.191 48
      vertex -50.545 -18.138 0
    endloop
  endfacet
  facet normal 0 0 -1
    outer loop
      vertex 4 -98 0
      vertex -16 -98 0
      vertex -16 -88 0
    endloop
  endfacet
  facet normal 0 0 -1
    outer loop
      vertex -16 -88 0
      vertex -16 -68 0
      vertex 4 -88 0
    endloop
  endfacet
  facet normal 0 0 -1
    outer loop
      vertex 4 -88 0
      vertex -16 -68 0
      vertex 4 -68 0
    endloop
  endfacet
  facet normal 0 0 -1
    outer loop
      vertex 4 -98 0
      vertex -16 -88 0
      vertex 4 -88 0
    endloop
  endfacet
  facet normal -0.99879 0.0491 0
    outer loop
      vertex 69.792 18.196 0
      vertex 69.528 12.826 0
      vertex 69.528 12.826 63
    endloop
  endfacet
  facet normal -0.99879 0.0491 0
    outer loop
      vertex 69.792 18.196 0
      vertex 69.528 12.826 63
      vertex 69.792 18.196 63
    endloop
  endfacet
  facet normal 0 -1 0
    outer loop
      vertex -16 -98 0
      vertex 4 -98 0
      vertex -16 -98 20
    endloop
  endfacet
  facet normal 0 -1 0
    outer loop
      vertex 4 -98 0
      vertex 4 -98 20
      vertex -16 -98 20
    endloop
  endfacet
  facet normal -0.98918 0.14673 0
    outer loop
      vertex 69.528 12.826 63
      vertex 69.528 12.826 0
      vertex 68.739 7.507 0
    endloop
  endfacet
  facet normal -0.98918 0.14673 0
    outer loop
      vertex 69.528 12.826 63
      vertex 68.739 7.507 0
      vertex 68.739 7.507 63
    endloop
  endfacet
  facet normal 0.9988 0.04907 0
    outer loop
      vertex -50.746 -14.047 48
      vertex -50.545 -18.138 48
      vertex -50.545 -18.138 0
    endloop
  endfacet
  facet normal -0.97005 0.24289 0
    outer loop
      vertex 68.739 7.507 63
      vertex 68.739 7.507 0
      vertex 67.433 2.291 0
    endloop
  endfacet
  facet normal -0.97005 0.24289 0
    outer loop
      vertex 68.739 7.507 63
      vertex 67.433 2.291 0
      vertex 67.433 2.291 63
    endloop
  endfacet
  facet normal -0.94152 0.33696 0
    outer loop
      vertex 67.433 2.291 63
      vertex 67.433 2.291 0
      vertex 65.621 -2.772 63
    endloop
  endfacet
  facet normal -0.9988 -0.04905 0
    outer loop
      vertex -56.769 -18.751 0
      vertex -56.769 -18.751 48
      vertex -57 -14.047 48
    endloop
  endfacet
  facet normal -0.97005 -0.24289 0
    outer loop
      vertex 67.433 34.102 0
      vertex 68.739 28.886 0
      vertex 68.739 28.886 63
    endloop
  endfacet
  facet normal -0.98918 -0.14668 0
    outer loop
      vertex -56.769 -18.751 0
      vertex -56.078 -23.411 0
      vertex -56.078 -23.411 48
    endloop
  endfacet
  facet normal -0.98918 -0.14668 0
    outer loop
      vertex -56.769 -18.751 0
      vertex -56.078 -23.411 48
      vertex -56.769 -18.751 48
    endloop
  endfacet
  facet normal 0 0 -1
    outer loop
      vertex 54.967 66.896 0
      vertex 49.76 60.551 0
      vertex 50.001 70.579 0
    endloop
  endfacet
  facet normal 0 0 -1
    outer loop
      vertex 49.76 60.551 0
      vertex 45.441 63.754 0
      vertex 50.001 70.579 0
    endloop
  endfacet
  facet normal 0 0 -1
    outer loop
      vertex 45.441 63.754 0
      vertex 40.829 66.519 0
      vertex 50.001 70.579 0
    endloop
  endfacet
  facet normal 0 0 -1
    outer loop
      vertex 44.698 73.757 0
      vertex 50.001 70.579 0
      vertex 40.829 66.519 0
    endloop
  endfacet
  facet normal 0 0 -1
    outer loop
      vertex 39.109 76.401 0
      vertex 44.698 73.757 0
      vertex 40.829 66.519 0
    endloop
  endfacet
  facet normal 0 0 -1
    outer loop
      vertex 40.829 66.519 0
      vertex 35.968 68.817 0
      vertex 39.109 76.401 0
    endloop
  endfacet
  facet normal -0.98918 -0.14673 0
    outer loop
      vertex 68.739 28.886 63
      vertex 68.739 28.886 0
      vertex 69.528 23.567 0
    endloop
  endfacet
  facet normal -0.98918 -0.14673 0
    outer loop
      vertex 68.739 28.886 63
      vertex 69.528 23.567 0
      vertex 69.528 23.567 63
    endloop
  endfacet
  facet normal -0.97 -0.24309 0
    outer loop
      vertex -54.933 -27.98 48
      vertex -56.078 -23.411 48
      vertex -54.933 -27.98 0
    endloop
  endfacet
  facet normal -0.97 -0.24309 0
    outer loop
      vertex -56.078 -23.411 0
      vertex -54.933 -27.98 0
      vertex -56.078 -23.411 48
    endloop
  endfacet
  facet normal 0 0 -1
    outer loop
      vertex 67.383 53.197 0
      vertex 70.561 47.894 0
      vertex 60.558 48.637 0
    endloop
  endfacet
  facet normal -0.99879 -0.04909 0
    outer loop
      vertex 69.528 23.567 63
      vertex 69.528 23.567 0
      vertex 69.792 18.196 0
    endloop
  endfacet
  facet normal -0.99879 -0.04909 0
    outer loop
      vertex 69.528 23.567 63
      vertex 69.792 18.196 0
      vertex 69.792 18.196 63
    endloop
  endfacet
  facet normal -0.94154 -0.33691 0
    outer loop
      vertex -54.933 -27.98 0
      vertex -53.346 -32.415 0
      vertex -53.346 -32.415 48
    endloop
  endfacet
  facet normal -0.94154 -0.33691 0
    outer loop
      vertex -54.933 -27.98 0
      vertex -53.346 -32.415 48
      vertex -54.933 -27.98 48
    endloop
  endfacet
  facet normal 0.9988 0.04901 0
    outer loop
      vertex 77.697 24.371 0
      vertex 77.697 24.371 63
      vertex 78 18.196 63
    endloop
  endfacet
  facet normal 0.9988 0.04901 0
    outer loop
      vertex 77.697 24.371 0
      vertex 78 18.196 63
      vertex 78 18.196 0
    endloop
  endfacet
  facet normal -0.90402 -0.42749 0
    outer loop
      vertex -53.346 -32.415 0
      vertex -51.332 -36.674 48
      vertex -53.346 -32.415 48
    endloop
  endfacet
  facet normal 0.98916 0.14685 0
    outer loop
      vertex 76.789 30.487 0
      vertex 76.789 30.487 63
      vertex 77.697 24.371 63
    endloop
  endfacet
  facet normal 0.98916 0.14685 0
    outer loop
      vertex 76.789 30.487 0
      vertex 77.697 24.371 63
      vertex 77.697 24.371 0
    endloop
  endfacet
  facet normal 0 0 -1
    outer loop
      vertex 73.204 42.305 0
      vertex 65.621 39.164 0
      vertex 70.561 47.894 0
    endloop
  endfacet
  facet normal 0 0 -1
    outer loop
      vertex 67.433 34.102 0
      vertex 65.621 39.164 0
      vertex 73.204 42.305 0
    endloop
  endfacet
  facet normal 0 0 -1
    outer loop
      vertex 63.322 44.025 0
      vertex 70.561 47.894 0
      vertex 65.621 39.164 0
    endloop
  endfacet
  facet normal 0.9988 -0.04906 0
    outer loop
      vertex -50.545 -9.955 48
      vertex -50.746 -14.047 48
      vertex -50.746 -14.047 0
    endloop
  endfacet
  facet normal 0.9988 -0.04906 0
    outer loop
      vertex -50.545 -9.955 48
      vertex -50.746 -14.047 0
      vertex -50.545 -9.955 0
    endloop
  endfacet
  facet normal 0.97004 0.24295 0
    outer loop
      vertex 76.789 30.487 63
      vertex 76.789 30.487 0
      vertex 75.287 36.484 0
    endloop
  endfacet
  facet normal 0.98918 -0.14668 0
    outer loop
      vertex -50.545 -9.955 0
      vertex -49.944 -5.902 0
      vertex -50.545 -9.955 48
    endloop
  endfacet
  facet normal 0.98918 -0.14668 0
    outer loop
      vertex -49.944 -5.902 48
      vertex -50.545 -9.955 48
      vertex -49.944 -5.902 0
    endloop
  endfacet
  facet normal 0.97005 -0.24292 0
    outer loop
      vertex 75.287 -0.092 0
      vertex 76.789 5.906 0
      vertex 76.789 5.906 63
    endloop
  endfacet
  facet normal 0 0 -1
    outer loop
      vertex 78 18.196 0
      vertex 77.697 12.021 0
      vertex 69.792 18.196 0
    endloop
  endfacet
  facet normal 0.97006 -0.24288 0
    outer loop
      vertex -48.949 -1.928 48
      vertex -49.944 -5.902 48
      vertex -49.944 -5.902 0
    endloop
  endfacet
  facet normal 0.97006 -0.24288 0
    outer loop
      vertex -48.949 -1.928 48
      vertex -49.944 -5.902 0
      vertex -48.949 -1.928 0
    endloop
  endfacet
  facet normal 0.98915 -0.14688 0
    outer loop
      vertex 76.789 5.906 0
      vertex 77.697 12.021 0
      vertex 77.697 12.021 63
    endloop
  endfacet
  facet normal 0.98915 -0.14688 0
    outer loop
      vertex 76.789 5.906 0
      vertex 77.697 12.021 63
      vertex 76.789 5.906 63
    endloop
  endfacet
  facet normal 0 0 -1
    outer loop
      vertex 69.528 12.826 0
      vertex 69.792 18.196 0
      vertex 77.697 12.021 0
    endloop
  endfacet
  facet normal 0.9988 -0.04901 0
    outer loop
      vertex 77.697 12.021 0
      vertex 78 18.196 0
      vertex 78 18.196 63
    endloop
  endfacet
  facet normal 0.9988 -0.04901 0
    outer loop
      vertex 77.697 12.021 0
      vertex 78 18.196 63
      vertex 77.697 12.021 63
    endloop
  endfacet
  facet normal 0.94147 -0.33709 0
    outer loop
      vertex -47.568 1.929 48
      vertex -48.949 -1.928 48
      vertex -48.949 -1.928 0
    endloop
  endfacet
  facet normal 0 0 -1
    outer loop
      vertex 73.204 42.305 0
      vertex 75.287 36.484 0
      vertex 67.433 34.102 0
    endloop
  endfacet
  facet normal 0 0 -1
    outer loop
      vertex 75.287 36.484 0
      vertex 76.789 30.487 0
      vertex 67.433 34.102 0
    endloop
  endfacet
  facet normal 0 0 -1
    outer loop
      vertex 68.739 28.886 0
      vertex 67.433 34.102 0
      vertex 76.789 30.487 0
    endloop
  endfacet
  facet normal -1 0 0
    outer loop
      vertex 19.002 80.99963 63
      vertex 19.002 80.99963 0
      vertex 19.002 72.79129 63
    endloop
  endfacet
  facet normal -1 0 0
    outer loop
      vertex 19.002 72.79129 0
      vertex 19.002 72.79129 63
      vertex 19.002 80.99963 0
    endloop
  endfacet
  facet normal 0.9988 0.04907 0
    outer loop
      vertex -50.746 -14.047 0
      vertex -50.746 -14.047 48
      vertex -50.545 -18.138 0
    endloop
  endfacet
  facet normal -0.59568 -0.80322 0
    outer loop
      vertex 49.76 60.551 63
      vertex 45.441 63.754 63
      vertex 45.441 63.754 0
    endloop
  endfacet
  facet normal -0.59568 -0.80322 0
    outer loop
      vertex 49.76 60.551 63
      vertex 45.441 63.754 0
      vertex 49.76 60.551 0
    endloop
  endfacet
  facet normal -0.67157 -0.74094 0
    outer loop
      vertex 53.744 56.94 63
      vertex 49.76 60.551 63
      vertex 49.76 60.551 0
    endloop
  endfacet
  facet normal -0.67157 -0.74094 0
    outer loop
      vertex 53.744 56.94 63
      vertex 49.76 60.551 0
      vertex 53.744 56.94 0
    endloop
  endfacet
  facet normal -0.33696 -0.94152 0
    outer loop
      vertex 30.905 70.629 63
      vertex 30.905 70.629 0
      vertex 35.968 68.817 0
    endloop
  endfacet
  facet normal -0.9988 -0.04905 0
    outer loop
      vertex -57 -14.047 48
      vertex -57 -14.047 0
      vertex -56.769 -18.751 0
    endloop
  endfacet
  facet normal -0.74094 -0.67157 0
    outer loop
      vertex 53.744 56.94 63
      vertex 53.744 56.94 0
      vertex 57.355 52.956 0
    endloop
  endfacet
  facet normal -0.74094 -0.67157 0
    outer loop
      vertex 53.744 56.94 63
      vertex 57.355 52.956 0
      vertex 57.355 52.956 63
    endloop
  endfacet
  facet normal 0.24295 0.97004 0
    outer loop
      vertex 33.288 78.484 0
      vertex 27.291 79.986 0
      vertex 27.291 79.986 63
    endloop
  endfacet
  facet normal -0.94154 0.33691 0
    outer loop
      vertex -54.933 -0.113 48
      vertex -53.346 4.322 48
      vertex -54.933 -0.113 0
    endloop
  endfacet
  facet normal 0 0 -1
    outer loop
      vertex 76.789 30.487 0
      vertex 77.697 24.371 0
      vertex 69.528 23.567 0
    endloop
  endfacet
  facet normal 0 0 -1
    outer loop
      vertex 69.528 23.567 0
      vertex 68.739 28.886 0
      vertex 76.789 30.487 0
    endloop
  endfacet
  facet normal 0 0 -1
    outer loop
      vertex 69.792 18.196 0
      vertex 69.528 23.567 0
      vertex 77.697 24.371 0
    endloop
  endfacet
  facet normal 0 0 -1
    outer loop
      vertex 77.697 24.371 0
      vertex 78 18.196 0
      vertex 69.792 18.196 0
    endloop
  endfacet
  facet normal 0 0 -1
    outer loop
      vertex 76.789 5.906 0
      vertex 75.287 -0.092 0
      vertex 67.433 2.291 0
    endloop
  endfacet
  facet normal 0 0 -1
    outer loop
      vertex 67.433 2.291 0
      vertex 68.739 7.507 0
      vertex 76.789 5.906 0
    endloop
  endfacet
  facet normal 0 0 -1
    outer loop
      vertex 75.287 -0.092 0
      vertex 73.204 -5.913 0
      vertex 67.433 2.291 0
    endloop
  endfacet
  facet normal -0.80322 -0.59568 0
    outer loop
      vertex 57.355 52.956 63
      vertex 57.355 52.956 0
      vertex 60.558 48.637 0
    endloop
  endfacet
  facet normal -0.80322 -0.59568 0
    outer loop
      vertex 57.355 52.956 63
      vertex 60.558 48.637 0
      vertex 60.558 48.637 63
    endloop
  endfacet
  facet normal 0.1467 0.98918 0
    outer loop
      vertex 27.291 79.986 0
      vertex 21.175 80.893 0
      vertex 21.175 80.893 63
    endloop
  endfacet
  facet normal 0.1467 0.98918 0
    outer loop
      vertex 27.291 79.986 0
      vertex 21.175 80.893 63
      vertex 27.291 79.986 63
    endloop
  endfacet
  facet normal -0.97 0.24309 0
    outer loop
      vertex -54.933 -0.113 0
      vertex -56.078 -4.682 0
      vertex -56.078 -4.682 48
    endloop
  endfacet
  facet normal -0.97 0.24309 0
    outer loop
      vertex -54.933 -0.113 0
      vertex -56.078 -4.682 48
      vertex -54.933 -0.113 48
    endloop
  endfacet
  facet normal -0.85776 -0.51406 0
    outer loop
      vertex 60.558 48.637 63
      vertex 60.558 48.637 0
      vertex 63.322 44.025 0
    endloop
  endfacet
  facet normal -0.85776 -0.51406 0
    outer loop
      vertex 60.558 48.637 63
      vertex 63.322 44.025 0
      vertex 63.322 44.025 63
    endloop
  endfacet
  facet normal 0.04901 0.9988 0
    outer loop
      vertex 21.175 80.893 0
      vertex 19.002 80.99963 0
      vertex 19.002 80.99963 63
    endloop
  endfacet
  facet normal 0.04901 0.9988 0
    outer loop
      vertex 21.175 80.893 0
      vertex 19.002 80.99963 63
      vertex 21.175 80.893 63
    endloop
  endfacet
  facet normal -0.98918 0.14668 0
    outer loop
      vertex -56.769 -9.342 48
      vertex -56.078 -4.682 48
      vertex -56.769 -9.342 0
    endloop
  endfacet
  facet normal -0.98918 0.14668 0
    outer loop
      vertex -56.078 -4.682 0
      vertex -56.769 -9.342 0
      vertex -56.078 -4.682 48
    endloop
  endfacet
  facet normal -0.904 -0.42754 0
    outer loop
      vertex 65.621 39.164 0
      vertex 63.322 44.025 63
      vertex 63.322 44.025 0
    endloop
  endfacet
  facet normal 0.80321 0.5957 0
    outer loop
      vertex 63.7 58.163 0
      vertex 63.7 58.163 63
      vertex 67.383 53.197 0
    endloop
  endfacet
  facet normal -0.9988 0.04904 0
    outer loop
      vertex -56.769 -9.342 48
      vertex -56.769 -9.342 0
      vertex -57 -14.047 48
    endloop
  endfacet
  facet normal -0.9988 0.04904 0
    outer loop
      vertex -57 -14.047 0
      vertex -57 -14.047 48
      vertex -56.769 -9.342 0
    endloop
  endfacet
  facet normal 0.74095 0.67156 0
    outer loop
      vertex 59.548 62.744 0
      vertex 59.548 62.744 63
      vertex 63.7 58.163 63
    endloop
  endfacet
  facet normal 0.74095 0.67156 0
    outer loop
      vertex 59.548 62.744 0
      vertex 63.7 58.163 63
      vertex 63.7 58.163 0
    endloop
  endfacet
  facet normal 0 0 -1
    outer loop
      vertex 54.967 66.896 0
      vertex 59.548 62.744 0
      vertex 49.76 60.551 0
    endloop
  endfacet
  facet normal 0 0 -1
    outer loop
      vertex 53.744 56.94 0
      vertex 49.76 60.551 0
      vertex 59.548 62.744 0
    endloop
  endfacet
  facet normal 0 0 -1
    outer loop
      vertex 57.355 52.956 0
      vertex 53.744 56.94 0
      vertex 59.548 62.744 0
    endloop
  endfacet
  facet normal 0 0 -1
    outer loop
      vertex 59.548 62.744 0
      vertex 63.7 58.163 0
      vertex 57.355 52.956 0
    endloop
  endfacet
  facet normal 0.90407 0.42738 0
    outer loop
      vertex -47.568 -30.022 48
      vertex -45.817 -33.726 0
      vertex -47.568 -30.022 0
    endloop
  endfacet
  facet normal 0.67156 0.74095 0
    outer loop
      vertex 59.548 62.744 0
      vertex 54.967 66.896 0
      vertex 54.967 66.896 63
    endloop
  endfacet
  facet normal 0.67156 0.74095 0
    outer loop
      vertex 59.548 62.744 0
      vertex 54.967 66.896 63
      vertex 59.548 62.744 63
    endloop
  endfacet
  facet normal -0.94152 0.33696 0
    outer loop
      vertex 67.433 2.291 0
      vertex 65.621 -2.772 0
      vertex 65.621 -2.772 63
    endloop
  endfacet
  facet normal 0.94147 0.33709 0
    outer loop
      vertex -48.949 -26.165 0
      vertex -48.949 -26.165 48
      vertex -47.568 -30.022 0
    endloop
  endfacet
  facet normal 0.94147 0.33709 0
    outer loop
      vertex -47.568 -30.022 48
      vertex -47.568 -30.022 0
      vertex -48.949 -26.165 48
    endloop
  endfacet
  facet normal 0 0 -1
    outer loop
      vertex 63.7 58.163 0
      vertex 67.383 53.197 0
      vertex 57.355 52.956 0
    endloop
  endfacet
  facet normal 0 0 -1
    outer loop
      vertex 60.558 48.637 0
      vertex 57.355 52.956 0
      vertex 67.383 53.197 0
    endloop
  endfacet
  facet normal 0 0 -1
    outer loop
      vertex 63.322 44.025 0
      vertex 60.558 48.637 0
      vertex 70.561 47.894 0
    endloop
  endfacet
  facet normal 0.97006 0.24288 0
    outer loop
      vertex -48.949 -26.165 48
      vertex -48.949 -26.165 0
      vertex -49.944 -22.191 0
    endloop
  endfacet
  facet normal -0.90396 0.42761 0
    outer loop
      vertex 65.621 -2.772 0
      vertex 63.322 -7.632 0
      vertex 65.621 -2.772 63
    endloop
  endfacet
  facet normal 0.80315 -0.59577 0
    outer loop
      vertex 67.383 -16.805 63
      vertex 63.7 -21.77 0
      vertex 67.383 -16.805 0
    endloop
  endfacet
  facet normal 0.80315 -0.59577 0
    outer loop
      vertex 63.7 -21.77 63
      vertex 63.7 -21.77 0
      vertex 67.383 -16.805 63
    endloop
  endfacet
  facet normal 0.85776 -0.51404 0
    outer loop
      vertex 70.561 -11.502 0
      vertex 70.561 -11.502 63
      vertex 67.383 -16.805 63
    endloop
  endfacet
  facet normal 0.85776 -0.51404 0
    outer loop
      vertex 70.561 -11.502 0
      vertex 67.383 -16.805 63
      vertex 67.383 -16.805 0
    endloop
  endfacet
  facet normal 0 0 1
    outer loop
      vertex 19.002 -44.60698 63
      vertex 21.175 -44.5 63
      vertex 19.002 -36.39929 63
    endloop
  endfacet
  facet normal 0.90401 -0.4275 0
    outer loop
      vertex 73.204 -5.913 0
      vertex 73.204 -5.913 63
      vertex 70.561 -11.502 63
    endloop
  endfacet
  facet normal 0.90401 -0.4275 0
    outer loop
      vertex 73.204 -5.913 0
      vertex 70.561 -11.502 63
      vertex 70.561 -11.502 0
    endloop
  endfacet
  facet normal 0.94153 -0.33692 0
    outer loop
      vertex 75.287 -0.092 0
      vertex 75.287 -0.092 63
      vertex 73.204 -5.913 63
    endloop
  endfacet
  facet normal 0.94153 -0.33692 0
    outer loop
      vertex 75.287 -0.092 0
      vertex 73.204 -5.913 63
      vertex 73.204 -5.913 0
    endloop
  endfacet
  facet normal 0.97005 -0.24292 0
    outer loop
      vertex 76.789 5.906 63
      vertex 75.287 -0.092 63
      vertex 75.287 -0.092 0
    endloop
  endfacet
  facet normal 0 0 -1
    outer loop
      vertex 70.561 -11.502 0
      vertex 65.621 -2.772 0
      vertex 73.204 -5.913 0
    endloop
  endfacet
  facet normal 0 0 -1
    outer loop
      vertex 63.322 -7.632 0
      vertex 65.621 -2.772 0
      vertex 70.561 -11.502 0
    endloop
  endfacet
  facet normal 0 0 -1
    outer loop
      vertex 77.697 12.021 0
      vertex 76.789 5.906 0
      vertex 68.739 7.507 0
    endloop
  endfacet
  facet normal 0 0 -1
    outer loop
      vertex 68.739 7.507 0
      vertex 69.528 12.826 0
      vertex 77.697 12.021 0
    endloop
  endfacet
  facet normal 0 0 -1
    outer loop
      vertex 65.621 -2.772 0
      vertex 67.433 2.291 0
      vertex 73.204 -5.913 0
    endloop
  endfacet
  facet normal -0.90396 0.42761 0
    outer loop
      vertex 63.322 -7.632 63
      vertex 65.621 -2.772 63
      vertex 63.322 -7.632 0
    endloop
  endfacet
  facet normal 0 0 1
    outer loop
      vertex 30.905 -34.236 63
      vertex 25.689 -35.543 63
      vertex 33.288 -42.091 63
    endloop
  endfacet
  facet normal -0.85776 0.51406 0
    outer loop
      vertex 63.322 -7.632 0
      vertex 60.558 -12.244 63
      vertex 63.322 -7.632 63
    endloop
  endfacet
  facet normal -0.74094 0.67157 0
    outer loop
      vertex 53.744 -20.547 63
      vertex 57.355 -16.563 63
      vertex 53.744 -20.547 0
    endloop
  endfacet
  facet normal 0 0 1
    outer loop
      vertex 25.689 -35.543 63
      vertex 20.371 -36.332 63
      vertex 27.291 -43.593 63
    endloop
  endfacet
  facet normal -0.67157 0.74094 0
    outer loop
      vertex 53.744 -20.547 0
      vertex 49.76 -24.158 0
      vertex 53.744 -20.547 63
    endloop
  endfacet
  facet normal -0.67157 0.74094 0
    outer loop
      vertex 49.76 -24.158 63
      vertex 53.744 -20.547 63
      vertex 49.76 -24.158 0
    endloop
  endfacet
  facet normal 0 0 -1
    outer loop
      vertex 63.322 -7.632 0
      vertex 70.561 -11.502 0
      vertex 60.558 -12.244 0
    endloop
  endfacet
  facet normal 0 0 -1
    outer loop
      vertex 70.561 -11.502 0
      vertex 67.383 -16.805 0
      vertex 60.558 -12.244 0
    endloop
  endfacet
  facet normal -0.59568 0.80322 0
    outer loop
      vertex 45.441 -27.361 63
      vertex 49.76 -24.158 63
      vertex 49.76 -24.158 0
    endloop
  endfacet
  facet normal -0.59568 0.80322 0
    outer loop
      vertex 45.441 -27.361 63
      vertex 49.76 -24.158 0
      vertex 45.441 -27.361 0
    endloop
  endfacet
  facet normal -0.42754 0.904 0
    outer loop
      vertex 35.968 -32.425 63
      vertex 40.829 -30.126 63
      vertex 35.968 -32.425 0
    endloop
  endfacet
  facet normal -0.51419 0.85767 0
    outer loop
      vertex 45.441 -27.361 0
      vertex 40.829 -30.126 0
      vertex 45.441 -27.361 63
    endloop
  endfacet
  facet normal -0.51419 0.85767 0
    outer loop
      vertex 40.829 -30.126 63
      vertex 45.441 -27.361 63
      vertex 40.829 -30.126 0
    endloop
  endfacet
  facet normal 0 0 -1
    outer loop
      vertex 57.355 -16.563 0
      vertex 60.558 -12.244 0
      vertex 67.383 -16.805 0
    endloop
  endfacet
  facet normal -0.42754 0.904 0
    outer loop
      vertex 40.829 -30.126 63
      vertex 40.829 -30.126 0
      vertex 35.968 -32.425 0
    endloop
  endfacet
  facet normal 0.74095 -0.67156 0
    outer loop
      vertex 63.7 -21.77 0
      vertex 63.7 -21.77 63
      vertex 59.548 -26.351 0
    endloop
  endfacet
  facet normal 0 0 -1
    outer loop
      vertex 67.383 -16.805 0
      vertex 63.7 -21.77 0
      vertex 57.355 -16.563 0
    endloop
  endfacet
  facet normal 0 0 -1
    outer loop
      vertex 63.7 -21.77 0
      vertex 59.548 -26.351 0
      vertex 57.355 -16.563 0
    endloop
  endfacet
  facet normal -0.3368 0.94158 0
    outer loop
      vertex 35.968 -32.425 63
      vertex 35.968 -32.425 0
      vertex 30.905 -34.236 63
    endloop
  endfacet
  facet normal -0.3368 0.94158 0
    outer loop
      vertex 30.905 -34.236 0
      vertex 30.905 -34.236 63
      vertex 35.968 -32.425 0
    endloop
  endfacet
  facet normal 0 0 -1
    outer loop
      vertex 53.744 -20.547 0
      vertex 57.355 -16.563 0
      vertex 59.548 -26.351 0
    endloop
  endfacet
  facet normal 0.5957 -0.80321 0
    outer loop
      vertex 54.967 -30.503 0
      vertex 54.967 -30.503 63
      vertex 50.001 -34.186 63
    endloop
  endfacet
  facet normal 0.67156 -0.74095 0
    outer loop
      vertex 59.548 -26.351 0
      vertex 59.548 -26.351 63
      vertex 54.967 -30.503 63
    endloop
  endfacet
  facet normal 0.67156 -0.74095 0
    outer loop
      vertex 59.548 -26.351 0
      vertex 54.967 -30.503 63
      vertex 54.967 -30.503 0
    endloop
  endfacet
  facet normal -1 0 0
    outer loop
      vertex -16 42 10
      vertex -16 42 0
      vertex -16 19.998 13.86825
    endloop
  endfacet
  facet normal 0.24295 -0.97004 0
    outer loop
      vertex 33.288 -42.091 63
      vertex 27.291 -43.593 63
      vertex 33.288 -42.091 0
    endloop
  endfacet
  facet normal 0 0 -1
    outer loop
      vertex 49.76 -24.158 0
      vertex 53.744 -20.547 0
      vertex 59.548 -26.351 0
    endloop
  endfacet
  facet normal 0 0 -1
    outer loop
      vertex 59.548 -26.351 0
      vertex 54.967 -30.503 0
      vertex 49.76 -24.158 0
    endloop
  endfacet
  facet normal 0 0 -1
    outer loop
      vertex 54.967 -30.503 0
      vertex 50.001 -34.186 0
      vertex 49.76 -24.158 0
    endloop
  endfacet
  facet normal 0.74095 -0.67156 0
    outer loop
      vertex 63.7 -21.77 63
      vertex 59.548 -26.351 63
      vertex 59.548 -26.351 0
    endloop
  endfacet
  facet normal 0 0 -1
    outer loop
      vertex 45.441 -27.361 0
      vertex 49.76 -24.158 0
      vertex 50.001 -34.186 0
    endloop
  endfacet
  facet normal 0 0 -1
    outer loop
      vertex 40.829 -30.126 0
      vertex 45.441 -27.361 0
      vertex 50.001 -34.186 0
    endloop
  endfacet
  facet normal 0 0 -1
    outer loop
      vertex 50.001 -34.186 0
      vertex 44.698 -37.365 0
      vertex 40.829 -30.126 0
    endloop
  endfacet
  facet normal 0.33692 -0.94153 0
    outer loop
      vertex 33.288 -42.091 63
      vertex 33.288 -42.091 0
      vertex 39.109 -40.008 63
    endloop
  endfacet
  facet normal 0.04901 0 0.9988
    outer loop
      vertex -6 82 12.998
      vertex -12.175 82 13.301
      vertex -6 19.998 12.998
    endloop
  endfacet
  facet normal 0.04901 0 0.9988
    outer loop
      vertex -12.175 19.998 13.301
      vertex -6 19.998 12.998
      vertex -12.175 82 13.301
    endloop
  endfacet
  facet normal 0.4275 -0.90401 0
    outer loop
      vertex 44.698 -37.365 0
      vertex 44.698 -37.365 63
      vertex 39.109 -40.008 63
    endloop
  endfacet
  facet normal 0.4275 -0.90401 0
    outer loop
      vertex 44.698 -37.365 0
      vertex 39.109 -40.008 63
      vertex 39.109 -40.008 0
    endloop
  endfacet
  facet normal 0 0 -1
    outer loop
      vertex 39.109 -40.008 0
      vertex 35.968 -32.425 0
      vertex 44.698 -37.365 0
    endloop
  endfacet
  facet normal 0 0 -1
    outer loop
      vertex 33.288 -42.091 0
      vertex 35.968 -32.425 0
      vertex 39.109 -40.008 0
    endloop
  endfacet
  facet normal -0.24306 0.97001 0
    outer loop
      vertex 25.689 -35.543 0
      vertex 25.689 -35.543 63
      vertex 30.905 -34.236 0
    endloop
  endfacet
  facet normal -0.24306 0.97001 0
    outer loop
      vertex 30.905 -34.236 63
      vertex 30.905 -34.236 0
      vertex 25.689 -35.543 63
    endloop
  endfacet
  facet normal 0.51416 -0.85769 0
    outer loop
      vertex 44.698 -37.365 63
      vertex 44.698 -37.365 0
      vertex 50.001 -34.186 63
    endloop
  endfacet
  facet normal 0.51416 -0.85769 0
    outer loop
      vertex 50.001 -34.186 0
      vertex 50.001 -34.186 63
      vertex 44.698 -37.365 0
    endloop
  endfacet
  facet normal 0 0 -1
    outer loop
      vertex -16 42 0
      vertex -51 42 0
      vertex -16 62 0
    endloop
  endfacet
  facet normal 0 0 -1
    outer loop
      vertex -51 62 0
      vertex -16 62 0
      vertex -51 42 0
    endloop
  endfacet
  facet normal -0.14676 0.98917 0
    outer loop
      vertex 25.689 -35.543 63
      vertex 25.689 -35.543 0
      vertex 20.371 -36.332 0
    endloop
  endfacet
  facet normal -0.14676 0.98917 0
    outer loop
      vertex 25.689 -35.543 63
      vertex 20.371 -36.332 0
      vertex 20.371 -36.332 63
    endloop
  endfacet
  facet normal -0.04909 0.99879 0
    outer loop
      vertex 19.002 -36.39929 0
      vertex 19.002 -36.39929 63
      vertex 20.371 -36.332 0
    endloop
  endfacet
  facet normal -0.04909 0.99879 0
    outer loop
      vertex 20.371 -36.332 63
      vertex 20.371 -36.332 0
      vertex 19.002 -36.39929 63
    endloop
  endfacet
  facet normal -1 0 0
    outer loop
      vertex 19.002 -44.60698 0
      vertex 19.002 -44.60698 63
      vertex 19.002 -36.39929 0
    endloop
  endfacet
  facet normal 0.94147 -0.33709 0
    outer loop
      vertex -48.949 -1.928 0
      vertex -47.568 1.929 0
      vertex -47.568 1.929 48
    endloop
  endfacet
  facet normal -0.85776 0.51406 0
    outer loop
      vertex 63.322 -7.632 0
      vertex 60.558 -12.244 0
      vertex 60.558 -12.244 63
    endloop
  endfacet
  facet normal 0.90403 -0.42748 0
    outer loop
      vertex -45.817 5.632 48
      vertex -47.568 1.929 48
      vertex -47.568 1.929 0
    endloop
  endfacet
  facet normal 0.90403 -0.42748 0
    outer loop
      vertex -45.817 5.632 48
      vertex -47.568 1.929 0
      vertex -45.817 5.632 0
    endloop
  endfacet
  facet normal -1 0 0
    outer loop
      vertex 19.002 -36.39929 63
      vertex 19.002 -36.39929 0
      vertex 19.002 -44.60698 63
    endloop
  endfacet
  facet normal 0.04917 -0.99879 0
    outer loop
      vertex 19.002 -44.60698 63
      vertex 19.002 -44.60698 0
      vertex 21.175 -44.5 63
    endloop
  endfacet
  facet normal 0.04917 -0.99879 0
    outer loop
      vertex 21.175 -44.5 0
      vertex 21.175 -44.5 63
      vertex 19.002 -44.60698 0
    endloop
  endfacet
  facet normal 0.85775 -0.51406 0
    outer loop
      vertex -43.711 9.146 48
      vertex -45.817 5.632 48
      vertex -45.817 5.632 0
    endloop
  endfacet
  facet normal 0.85775 -0.51406 0
    outer loop
      vertex -43.711 9.146 48
      vertex -45.817 5.632 0
      vertex -43.711 9.146 0
    endloop
  endfacet
  facet normal -0.80322 0.59568 0
    outer loop
      vertex 60.558 -12.244 63
      vertex 60.558 -12.244 0
      vertex 57.355 -16.563 0
    endloop
  endfacet
  facet normal -0.80322 0.59568 0
    outer loop
      vertex 60.558 -12.244 63
      vertex 57.355 -16.563 0
      vertex 57.355 -16.563 63
    endloop
  endfacet
  facet normal 0.1467 -0.98918 0
    outer loop
      vertex 27.291 -43.593 63
      vertex 21.175 -44.5 63
      vertex 21.175 -44.5 0
    endloop
  endfacet
  facet normal -0.74094 0.67157 0
    outer loop
      vertex 57.355 -16.563 63
      vertex 57.355 -16.563 0
      vertex 53.744 -20.547 0
    endloop
  endfacet
  facet normal 0 0 -1
    outer loop
      vertex -49.944 -5.902 0
      vertex -56.078 -4.682 0
      vertex -48.949 -1.928 0
    endloop
  endfacet
  facet normal 0 0 -1
    outer loop
      vertex -48.949 -1.928 0
      vertex -53.346 4.322 0
      vertex -47.568 1.929 0
    endloop
  endfacet
  facet normal 0 0 1
    outer loop
      vertex -28.002 30.0006 48
      vertex -31.627 28.286 48
      vertex -28.002 23.09031 48
    endloop
  endfacet
  facet normal 0 0 -1
    outer loop
      vertex -54.933 -0.113 0
      vertex -48.949 -1.928 0
      vertex -56.078 -4.682 0
    endloop
  endfacet
  facet normal 0 0 -1
    outer loop
      vertex -56.078 -4.682 0
      vertex -49.944 -5.902 0
      vertex -56.769 -9.342 0
    endloop
  endfacet
  facet normal 0 0 -1
    outer loop
      vertex -50.545 -9.955 0
      vertex -56.769 -9.342 0
      vertex -49.944 -5.902 0
    endloop
  endfacet
  facet normal 0 0 -1
    outer loop
      vertex -57 -14.047 0
      vertex -50.545 -9.955 0
      vertex -50.746 -14.047 0
    endloop
  endfacet
  facet normal 0 0 -1
    outer loop
      vertex -57 -14.047 0
      vertex -50.746 -14.047 0
      vertex -56.769 -18.751 0
    endloop
  endfacet
  facet normal 0 0 -1
    outer loop
      vertex -50.545 -18.138 0
      vertex -56.769 -18.751 0
      vertex -50.746 -14.047 0
    endloop
  endfacet
  facet normal 0 0 1
    outer loop
      vertex -32.193 20.664 48
      vertex -28.679 22.77 48
      vertex -35.667 25.864 48
    endloop
  endfacet
  facet normal 0 0 -1
    outer loop
      vertex -47.568 -30.022 0
      vertex -45.817 -33.726 0
      vertex -53.346 -32.415 0
    endloop
  endfacet
  facet normal 0 0 -1
    outer loop
      vertex -48.949 -26.165 0
      vertex -47.568 -30.022 0
      vertex -53.346 -32.415 0
    endloop
  endfacet
  facet normal 0 0 1
    outer loop
      vertex -45.817 5.632 48
      vertex -53.346 4.322 48
      vertex -47.568 1.929 48
    endloop
  endfacet
  facet normal 0 0 -1
    outer loop
      vertex -50.545 -18.138 0
      vertex -49.944 -22.191 0
      vertex -56.769 -18.751 0
    endloop
  endfacet
  facet normal 0 0 -1
    outer loop
      vertex -56.078 -23.411 0
      vertex -56.769 -18.751 0
      vertex -49.944 -22.191 0
    endloop
  endfacet
  facet normal 0 0 -1
    outer loop
      vertex -49.944 -22.191 0
      vertex -48.949 -26.165 0
      vertex -56.078 -23.411 0
    endloop
  endfacet
  facet normal 0 0 -1
    outer loop
      vertex -54.933 -27.98 0
      vertex -56.078 -23.411 0
      vertex -48.949 -26.165 0
    endloop
  endfacet
  facet normal 0 0 -1
    outer loop
      vertex -53.346 -32.415 0
      vertex -54.933 -27.98 0
      vertex -48.949 -26.165 0
    endloop
  endfacet
  facet normal 0 0 1
    outer loop
      vertex -43.711 9.146 48
      vertex -51.332 8.58 48
      vertex -45.817 5.632 48
    endloop
  endfacet
  facet normal 0 0 -1
    outer loop
      vertex -28.002 -58.0936 0
      vertex -31.627 -56.379 0
      vertex -28.002 -51.18331 0
    endloop
  endfacet
  facet normal 0 0 1
    outer loop
      vertex -39.451 23.058 48
      vertex -42.941 19.895 48
      vertex -35.484 18.224 48
    endloop
  endfacet
  facet normal 0 0 1
    outer loop
      vertex -53.346 4.322 48
      vertex -45.817 5.632 48
      vertex -51.332 8.58 48
    endloop
  endfacet
  facet normal 0 0 -1
    outer loop
      vertex -35.484 -46.317 0
      vertex -32.193 -48.757 0
      vertex -35.667 -53.957 0
    endloop
  endfacet
  facet normal 0 0 -1
    outer loop
      vertex -28.679 -50.863 0
      vertex -28.002 -51.18331 0
      vertex -31.627 -56.379 0
    endloop
  endfacet
  facet normal 0 0 1
    outer loop
      vertex -35.667 25.864 48
      vertex -39.451 23.058 48
      vertex -35.484 18.224 48
    endloop
  endfacet
  facet normal 0 0 1
    outer loop
      vertex -48.911 12.621 48
      vertex -51.332 8.58 48
      vertex -43.711 9.146 48
    endloop
  endfacet
  facet normal 0 0 -1
    outer loop
      vertex -31.627 -56.379 0
      vertex -35.667 -53.957 0
      vertex -28.679 -50.863 0
    endloop
  endfacet
  facet normal 0 0 -1
    outer loop
      vertex -35.667 -53.957 0
      vertex -39.451 -51.151 0
      vertex -35.484 -46.317 0
    endloop
  endfacet
  facet normal 0 0 -1
    outer loop
      vertex -32.193 -48.757 0
      vertex -28.679 -50.863 0
      vertex -35.667 -53.957 0
    endloop
  endfacet
  facet normal 0 0 -1
    outer loop
      vertex -42.941 -47.988 0
      vertex -46.105 -44.497 0
      vertex -38.519 -43.566 0
    endloop
  endfacet
  facet normal 0 0 -1
    outer loop
      vertex -38.519 -43.566 0
      vertex -35.484 -46.317 0
      vertex -42.941 -47.988 0
    endloop
  endfacet
  facet normal 0 0 -1
    outer loop
      vertex -39.451 -51.151 0
      vertex -42.941 -47.988 0
      vertex -35.484 -46.317 0
    endloop
  endfacet
  facet normal 0 0 1
    outer loop
      vertex -42.941 19.895 48
      vertex -46.105 16.404 48
      vertex -41.27 12.437 48
    endloop
  endfacet
  facet normal 0 0 1
    outer loop
      vertex -43.711 9.146 48
      vertex -41.27 12.437 48
      vertex -46.105 16.404 48
    endloop
  endfacet
  facet normal 0 0 1
    outer loop
      vertex -48.911 12.621 48
      vertex -43.711 9.146 48
      vertex -46.105 16.404 48
    endloop
  endfacet
  facet normal 0 0 1
    outer loop
      vertex -41.27 12.437 48
      vertex -38.519 15.472 48
      vertex -42.941 19.895 48
    endloop
  endfacet
  facet normal 0 0 1
    outer loop
      vertex -38.519 15.472 48
      vertex -35.484 18.224 48
      vertex -42.941 19.895 48
    endloop
  endfacet
  facet normal 0 0 1
    outer loop
      vertex -35.667 25.864 48
      vertex -35.484 18.224 48
      vertex -32.193 20.664 48
    endloop
  endfacet
  facet normal 0 0 1
    outer loop
      vertex -31.627 28.286 48
      vertex -35.667 25.864 48
      vertex -28.679 22.77 48
    endloop
  endfacet
  facet normal 0 0 1
    outer loop
      vertex -28.679 22.77 48
      vertex -28.002 23.09031 48
      vertex -31.627 28.286 48
    endloop
  endfacet
  facet normal 0 0 -1
    outer loop
      vertex -41.27 -40.53 0
      vertex -38.519 -43.566 0
      vertex -46.105 -44.497 0
    endloop
  endfacet
  facet normal 0 0 -1
    outer loop
      vertex -43.711 -37.24 0
      vertex -41.27 -40.53 0
      vertex -46.105 -44.497 0
    endloop
  endfacet
  facet normal 0 0 -1
    outer loop
      vertex -51.332 -36.674 0
      vertex -43.711 -37.24 0
      vertex -48.911 -40.714 0
    endloop
  endfacet
  facet normal 0 0 -1
    outer loop
      vertex -46.105 -44.497 0
      vertex -48.911 -40.714 0
      vertex -43.711 -37.24 0
    endloop
  endfacet
  facet normal 0 0 -1
    outer loop
      vertex -51.332 -36.674 0
      vertex -53.346 -32.415 0
      vertex -45.817 -33.726 0
    endloop
  endfacet
  facet normal 0 0 -1
    outer loop
      vertex -45.817 -33.726 0
      vertex -43.711 -37.24 0
      vertex -51.332 -36.674 0
    endloop
  endfacet
  facet normal 0 0 1
    outer loop
      vertex -54.933 -0.113 48
      vertex -48.949 -1.928 48
      vertex -53.346 4.322 48
    endloop
  endfacet
  facet normal 0 0 1
    outer loop
      vertex 35.968 68.817 63
      vertex 40.829 66.519 63
      vertex 39.109 76.401 63
    endloop
  endfacet
  facet normal 0 0 1
    outer loop
      vertex -47.568 1.929 48
      vertex -53.346 4.322 48
      vertex -48.949 -1.928 48
    endloop
  endfacet
  facet normal 0 0 1
    outer loop
      vertex -49.944 -5.902 48
      vertex -48.949 -1.928 48
      vertex -56.078 -4.682 48
    endloop
  endfacet
  facet normal 0 0 1
    outer loop
      vertex 39.109 76.401 63
      vertex 40.829 66.519 63
      vertex 44.698 73.757 63
    endloop
  endfacet
  facet normal 0 0 1
    outer loop
      vertex 44.698 73.757 63
      vertex 40.829 66.519 63
      vertex 50.001 70.579 63
    endloop
  endfacet
  facet normal 0 0 1
    outer loop
      vertex 45.441 63.754 63
      vertex 50.001 70.579 63
      vertex 40.829 66.519 63
    endloop
  endfacet
  facet normal 0 0 1
    outer loop
      vertex 45.441 63.754 63
      vertex 49.76 60.551 63
      vertex 50.001 70.579 63
    endloop
  endfacet
  facet normal 0 0 1
    outer loop
      vertex 54.967 66.896 63
      vertex 50.001 70.579 63
      vertex 49.76 60.551 63
    endloop
  endfacet
  facet normal 0 0 1
    outer loop
      vertex 60.558 48.637 63
      vertex 67.383 53.197 63
      vertex 57.355 52.956 63
    endloop
  endfacet
  facet normal 0 0 1
    outer loop
      vertex -56.078 -4.682 48
      vertex -56.769 -9.342 48
      vertex -49.944 -5.902 48
    endloop
  endfacet
  facet normal 0 0 1
    outer loop
      vertex -50.545 -9.955 48
      vertex -49.944 -5.902 48
      vertex -56.769 -9.342 48
    endloop
  endfacet
  facet normal 0 0 1
    outer loop
      vertex -56.078 -4.682 48
      vertex -48.949 -1.928 48
      vertex -54.933 -0.113 48
    endloop
  endfacet
  facet normal 0 0 1
    outer loop
      vertex -56.769 -9.342 48
      vertex -57 -14.047 48
      vertex -50.545 -9.955 48
    endloop
  endfacet
  facet normal 0 0 1
    outer loop
      vertex -50.746 -14.047 48
      vertex -50.545 -9.955 48
      vertex -57 -14.047 48
    endloop
  endfacet
  facet normal 0 0 1
    outer loop
      vertex -57 -14.047 48
      vertex -56.769 -18.751 48
      vertex -50.746 -14.047 48
    endloop
  endfacet
  facet normal 0 0 1
    outer loop
      vertex 76.789 30.487 63
      vertex 75.287 36.484 63
      vertex 67.433 34.102 63
    endloop
  endfacet
  facet normal 0 0 1
    outer loop
      vertex 65.621 39.164 63
      vertex 67.433 34.102 63
      vertex 73.204 42.305 63
    endloop
  endfacet
  facet normal 0 0 1
    outer loop
      vertex -47.568 -30.022 48
      vertex -53.346 -32.415 48
      vertex -45.817 -33.726 48
    endloop
  endfacet
  facet normal 0 0 1
    outer loop
      vertex 73.204 42.305 63
      vertex 67.433 34.102 63
      vertex 75.287 36.484 63
    endloop
  endfacet
  facet normal 0 0 1
    outer loop
      vertex 63.322 44.025 63
      vertex 65.621 39.164 63
      vertex 70.561 47.894 63
    endloop
  endfacet
  facet normal 0 0 1
    outer loop
      vertex 67.383 53.197 63
      vertex 60.558 48.637 63
      vertex 70.561 47.894 63
    endloop
  endfacet
  facet normal 0 0 1
    outer loop
      vertex 63.7 58.163 63
      vertex 57.355 52.956 63
      vertex 67.383 53.197 63
    endloop
  endfacet
  facet normal 0 0 1
    outer loop
      vertex 73.204 42.305 63
      vertex 70.561 47.894 63
      vertex 65.621 39.164 63
    endloop
  endfacet
  facet normal 0 0 1
    outer loop
      vertex 76.789 30.487 63
      vertex 67.433 34.102 63
      vertex 68.739 28.886 63
    endloop
  endfacet
  facet normal 0 0 1
    outer loop
      vertex -48.911 -40.714 48
      vertex -46.105 -44.497 48
      vertex -43.711 -37.24 48
    endloop
  endfacet
  facet normal 0 0 1
    outer loop
      vertex -48.949 -26.165 48
      vertex -53.346 -32.415 48
      vertex -47.568 -30.022 48
    endloop
  endfacet
  facet normal 0 0 1
    outer loop
      vertex -49.944 -22.191 48
      vertex -50.545 -18.138 48
      vertex -56.769 -18.751 48
    endloop
  endfacet
  facet normal 0 0 1
    outer loop
      vertex -38.519 -43.566 48
      vertex -41.27 -40.53 48
      vertex -46.105 -44.497 48
    endloop
  endfacet
  facet normal 0 0 1
    outer loop
      vertex 68.739 7.507 63
      vertex 67.433 2.291 63
      vertex 76.789 5.906 63
    endloop
  endfacet
  facet normal 0 0 1
    outer loop
      vertex -50.545 -18.138 48
      vertex -50.746 -14.047 48
      vertex -56.769 -18.751 48
    endloop
  endfacet
  facet normal 0 0 1
    outer loop
      vertex -56.769 -18.751 48
      vertex -56.078 -23.411 48
      vertex -49.944 -22.191 48
    endloop
  endfacet
  facet normal 0 0 1
    outer loop
      vertex -49.944 -22.191 48
      vertex -56.078 -23.411 48
      vertex -48.949 -26.165 48
    endloop
  endfacet
  facet normal 0 0 1
    outer loop
      vertex -54.933 -27.98 48
      vertex -48.949 -26.165 48
      vertex -56.078 -23.411 48
    endloop
  endfacet
  facet normal 0 0 1
    outer loop
      vertex -53.346 -32.415 48
      vertex -48.949 -26.165 48
      vertex -54.933 -27.98 48
    endloop
  endfacet
  facet normal 0 0 1
    outer loop
      vertex -51.332 -36.674 48
      vertex -45.817 -33.726 48
      vertex -53.346 -32.415 48
    endloop
  endfacet
  facet normal 0 0 1
    outer loop
      vertex -28.679 -50.863 48
      vertex -31.627 -56.379 48
      vertex -28.002 -51.18331 48
    endloop
  endfacet
  facet normal 0 0 1
    outer loop
      vertex -32.193 -48.757 48
      vertex -35.667 -53.957 48
      vertex -28.679 -50.863 48
    endloop
  endfacet
  facet normal 0 0 1
    outer loop
      vertex -35.484 -46.317 48
      vertex -35.667 -53.957 48
      vertex -32.193 -48.757 48
    endloop
  endfacet
  facet normal 0 0 1
    outer loop
      vertex -31.627 -56.379 48
      vertex -28.679 -50.863 48
      vertex -35.667 -53.957 48
    endloop
  endfacet
  facet normal 0 0 1
    outer loop
      vertex -28.002 -58.0936 48
      vertex -28.002 -51.18331 48
      vertex -31.627 -56.379 48
    endloop
  endfacet
endsolid stl_item0
